<svg width="32" height="29" viewBox="0 0 32 29" fill="none" xmlns="http://www.w3.org/2000/svg">
<mask id="path-1-inside-1_301_157" fill="white">
<path fill-rule="evenodd" clip-rule="evenodd" d="M3.08635e-05 5.46003C1.02935e-05 5.46595 0 5.47187 0 5.47779V23.9578C0 26.7192 2.23857 28.9578 5 28.9578H26.6444C29.4059 28.9578 31.6444 26.7192 31.6444 23.9578V5.80208L21.2412 16.8865C18.2176 20.1081 13.3508 20.0753 10.3709 16.8132L3.08635e-05 5.46003ZM0.579977 3.13826C1.41937 1.5557 3.0838 0.477783 5 0.477783H26.6445C28.6563 0.477783 30.3906 1.66598 31.1839 3.37891L30.1864 4.44175L19.8923 15.4099C17.6246 17.8261 13.9745 17.8015 11.7396 15.3549L1.57828 4.23112L0.579977 3.13826Z"/>
</mask>
<path d="M3.08635e-05 5.46003L1.47668 4.11114C0.920852 3.50266 0.048691 3.29743 -0.720155 3.5942C-1.489 3.89096 -1.99709 4.62895 -1.99996 5.45308L3.08635e-05 5.46003ZM31.6444 5.80208H33.6444C33.6444 4.98161 33.1433 4.24436 32.3804 3.94243C31.6175 3.6405 30.7476 3.83514 30.1861 4.43339L31.6444 5.80208ZM21.2412 16.8865L22.6995 18.2552L21.2412 16.8865ZM10.3709 16.8132L11.8475 15.4643L10.3709 16.8132ZM0.579977 3.13826L-1.18688 2.20112C-1.58296 2.94789 -1.46679 3.86303 -0.896675 4.48715L0.579977 3.13826ZM31.1839 3.37891L32.6422 4.7476C33.2005 4.15281 33.3415 3.27859 32.9987 2.5384L31.1839 3.37891ZM30.1864 4.44175L28.7281 3.07306L28.7281 3.07306L30.1864 4.44175ZM19.8923 15.4099L21.3506 16.7786L19.8923 15.4099ZM11.7396 15.3549L10.2629 16.7038L11.7396 15.3549ZM1.57828 4.23112L3.05493 2.88223V2.88223L1.57828 4.23112ZM2 5.47779C2 5.47418 2.00001 5.47058 2.00002 5.46698L-1.99996 5.45308C-1.99999 5.46131 -2 5.46955 -2 5.47779H2ZM2 23.9578V5.47779H-2V23.9578H2ZM5 26.9578C3.34314 26.9578 2 25.6146 2 23.9578H-2C-2 27.8238 1.134 30.9578 5 30.9578V26.9578ZM26.6444 26.9578H5V30.9578H26.6444V26.9578ZM29.6444 23.9578C29.6444 25.6146 28.3013 26.9578 26.6444 26.9578V30.9578C30.5104 30.9578 33.6444 27.8238 33.6444 23.9578H29.6444ZM29.6444 5.80208V23.9578H33.6444V5.80208H29.6444ZM30.1861 4.43339L19.7829 15.5178L22.6995 18.2552L33.1028 7.17078L30.1861 4.43339ZM19.7829 15.5178C17.5566 17.8899 14.0416 17.8662 11.8475 15.4643L8.89423 18.1621C12.6599 22.2844 18.8786 22.3264 22.6995 18.2552L19.7829 15.5178ZM11.8475 15.4643L1.47668 4.11114L-1.47662 6.80892L8.89423 18.1621L11.8475 15.4643ZM2.34683 4.0754C2.85315 3.1208 3.85306 2.47778 5 2.47778V-1.52222C2.31454 -1.52222 -0.0144197 -0.00938672 -1.18688 2.20112L2.34683 4.0754ZM5 2.47778H26.6445V-1.52222H5V2.47778ZM26.6445 2.47778C27.8485 2.47778 28.891 3.18714 29.3691 4.21941L32.9987 2.5384C31.8902 0.144823 29.4641 -1.52222 26.6445 -1.52222V2.47778ZM31.6447 5.81044L32.6422 4.7476L29.7256 2.01021L28.7281 3.07306L31.6447 5.81044ZM21.3506 16.7786L31.6447 5.81044L28.7281 3.07306L18.434 14.0412L21.3506 16.7786ZM10.2629 16.7038C13.2836 20.0106 18.2856 20.0443 21.3506 16.7786L18.434 14.0412C16.9636 15.6079 14.6653 15.5923 13.2162 14.006L10.2629 16.7038ZM0.10163 5.58001L10.2629 16.7038L13.2162 14.006L3.05493 2.88223L0.10163 5.58001ZM-0.896675 4.48715L0.10163 5.58001L3.05493 2.88223L2.05663 1.78937L-0.896675 4.48715Z" fill="white" mask="url(#path-1-inside-1_301_157)"/>
</svg>
