<svg width="30" height="32" viewBox="0 0 30 32" fill="none" xmlns="http://www.w3.org/2000/svg">
<mask id="path-1-inside-1_301_157" fill="white">
<path fill-rule="evenodd" clip-rule="evenodd" d="M9.36804 0C4.39748 0 0.368042 4.02944 0.368042 9V23C0.368042 27.9706 4.39748 32 9.36804 32H20.9977C25.9682 32 29.9977 27.9706 29.9977 23V9C29.9977 4.02944 25.9682 0 20.9977 0H9.36804ZM15.1797 20.9842C17.8436 20.9842 20.0032 18.6519 20.0032 15.7748C20.0032 12.8978 17.8436 10.5655 15.1797 10.5655C12.5158 10.5655 10.3562 12.8978 10.3562 15.7748C10.3562 18.6519 12.5158 20.9842 15.1797 20.9842Z"/>
</mask>
<path d="M2.36804 9C2.36804 5.13401 5.50205 2 9.36804 2V-2C3.29291 -2 -1.63196 2.92487 -1.63196 9H2.36804ZM2.36804 23V9H-1.63196V23H2.36804ZM9.36804 30C5.50205 30 2.36804 26.866 2.36804 23H-1.63196C-1.63196 29.0751 3.29291 34 9.36804 34V30ZM20.9977 30H9.36804V34H20.9977V30ZM27.9977 23C27.9977 26.866 24.8637 30 20.9977 30V34C27.0728 34 31.9977 29.0751 31.9977 23H27.9977ZM27.9977 9V23H31.9977V9H27.9977ZM20.9977 2C24.8637 2 27.9977 5.13401 27.9977 9H31.9977C31.9977 2.92487 27.0728 -2 20.9977 -2V2ZM9.36804 2H20.9977V-2H9.36804V2ZM18.0032 15.7748C18.0032 17.6951 16.5969 18.9842 15.1797 18.9842V22.9842C19.0904 22.9842 22.0032 19.6087 22.0032 15.7748H18.0032ZM15.1797 12.5655C16.5969 12.5655 18.0032 13.8546 18.0032 15.7748H22.0032C22.0032 11.941 19.0904 8.56549 15.1797 8.56549V12.5655ZM12.3562 15.7748C12.3562 13.8546 13.7625 12.5655 15.1797 12.5655V8.56549C11.2691 8.56549 8.35623 11.941 8.35623 15.7748H12.3562ZM15.1797 18.9842C13.7625 18.9842 12.3562 17.6951 12.3562 15.7748H8.35623C8.35623 19.6087 11.2691 22.9842 15.1797 22.9842V18.9842Z" fill="white" mask="url(#path-1-inside-1_301_157)"/>
<mask id="path-3-inside-2_301_157" fill="white">
<ellipse cx="23.225" cy="7.08571" rx="1.90476" ry="2.05714"/>
</mask>
<path d="M23.1297 7.08571C23.1297 7.15052 23.1063 7.17937 23.1043 7.18151C23.1038 7.18203 23.1125 7.17244 23.1354 7.16201C23.1602 7.15067 23.1924 7.14285 23.225 7.14285V11.1429C25.5236 11.1429 27.1297 9.17868 27.1297 7.08571H23.1297ZM23.225 7.14285C23.2575 7.14285 23.2897 7.15067 23.3145 7.16201C23.3374 7.17244 23.3461 7.18203 23.3456 7.18151C23.3436 7.17937 23.3202 7.15052 23.3202 7.08571H19.3202C19.3202 9.17868 20.9263 11.1429 23.225 11.1429V7.14285ZM23.3202 7.08571C23.3202 7.0209 23.3436 6.99205 23.3456 6.9899C23.3461 6.98938 23.3374 6.99897 23.3145 7.00941C23.2897 7.02074 23.2575 7.02856 23.225 7.02856V3.02856C20.9263 3.02856 19.3202 4.99274 19.3202 7.08571H23.3202ZM23.225 7.02856C23.1924 7.02856 23.1602 7.02074 23.1354 7.00941C23.1125 6.99897 23.1038 6.98938 23.1043 6.9899C23.1063 6.99205 23.1297 7.0209 23.1297 7.08571H27.1297C27.1297 4.99274 25.5236 3.02856 23.225 3.02856V7.02856Z" fill="white" mask="url(#path-3-inside-2_301_157)"/>
</svg>
