<svg width="32" height="34" viewBox="0 0 32 34" fill="none" xmlns="http://www.w3.org/2000/svg">
<path d="M7.59026 30.0354L8.20048 29.2432C7.91319 29.0219 7.52861 28.9735 7.19544 29.1166L7.59026 30.0354ZM2.55323 32.2L1.60858 31.8719C1.47858 32.2462 1.58184 32.662 1.87188 32.932C2.16191 33.2019 2.584 33.2752 2.94805 33.1188L2.55323 32.2ZM4.44266 26.76L5.3873 27.0881C5.49368 26.7818 5.44496 26.4429 5.25658 26.179L4.44266 26.76ZM12.8015 9.64005V8.64005C12.7852 8.64005 12.7688 8.64045 12.7525 8.64126L12.8015 9.64005ZM13.1766 9.70309L12.8817 10.6586L12.8859 10.6599L13.1766 9.70309ZM12.1347 9.81567L12.4598 10.7613L12.4598 10.7613L12.1347 9.81567ZM11.447 10.0723L11.0503 9.1544C11.0394 9.15913 11.0285 9.16407 11.0177 9.1692L11.447 10.0723ZM11.0094 10.338L11.576 11.162L11.576 11.162L11.0094 10.338ZM10.4968 10.7838L11.2208 11.4736C11.2241 11.4701 11.2274 11.4666 11.2307 11.4631L10.4968 10.7838ZM10.0925 11.2611L9.26036 10.7066L9.26036 10.7066L10.0925 11.2611ZM9.8091 11.779L8.90153 11.359L8.89749 11.3679L9.8091 11.779ZM9.55904 12.4544L10.5183 12.7369V12.7369L9.55904 12.4544ZM9.40067 13.1974L8.41003 13.0609C8.40933 13.0659 8.40868 13.071 8.40805 13.0761L9.40067 13.1974ZM9.37566 14.098L8.37698 14.1494L8.37705 14.1508L9.37566 14.098ZM9.50069 15.0437L8.52475 15.2617C8.52652 15.2696 8.5284 15.2776 8.53036 15.2854L9.50069 15.0437ZM9.82161 16.0568L10.7625 15.7182C10.7607 15.7132 10.7589 15.7082 10.757 15.7032L9.82161 16.0568ZM10.3176 17.2501L11.2251 16.8301L11.2251 16.8301L10.3176 17.2501ZM11.6262 19.5467L12.4455 18.9733L12.4453 18.973L11.6262 19.5467ZM12.6348 20.785L13.3727 20.11L13.3648 20.1015L12.6348 20.785ZM13.781 21.8747L14.414 21.1005L14.4136 21.1003L13.781 21.8747ZM14.8437 22.6582L15.3916 21.8216L15.3916 21.8216L14.8437 22.6582ZM15.9065 23.2887L15.4312 24.1685L15.4312 24.1685L15.9065 23.2887ZM17.011 23.8245L17.4147 22.9096L17.403 22.9045L17.011 23.8245ZM17.9487 24.1712L18.2214 23.2091L18.2095 23.2058L17.9487 24.1712ZM18.8448 24.3063L18.9016 23.308C18.8965 23.3077 18.8914 23.3074 18.8863 23.3072L18.8448 24.3063ZM19.6783 24.2793L19.8454 25.2653L19.8477 25.2649L19.6783 24.2793ZM20.9703 23.838L21.4361 24.7229L21.4361 24.7229L20.9703 23.838ZM21.4496 23.5318L20.8356 22.7425C20.8287 22.7479 20.8218 22.7534 20.815 22.759L21.4496 23.5318ZM22.3957 22.3791L23.2832 22.8399L23.2832 22.8399L22.3957 22.3791ZM22.7416 21.483L21.786 21.1881L21.7825 21.1999L22.7416 21.483ZM22.9375 20.6724L21.9425 20.5728L21.9418 20.5803L22.9375 20.6724ZM22.8958 20.1996L23.8538 19.9127L23.8514 19.9048L22.8958 20.1996ZM22.6499 19.7628L21.8882 20.4107L21.8915 20.4146L22.6499 19.7628ZM21.012 18.6641L20.4911 19.5177L20.4939 19.5194L21.012 18.6641ZM19.3658 17.7094L19.0154 18.6461C19.0233 18.649 19.0311 18.6518 19.039 18.6545L19.3658 17.7094ZM18.9698 17.6644L19.0468 18.6614C19.0582 18.6606 19.0695 18.6595 19.0809 18.6582L18.9698 17.6644ZM18.553 17.795L19.0283 18.6748L19.0283 18.6748L18.553 17.795ZM17.7403 18.6145L16.98 17.965L16.9788 17.9664L17.7403 18.6145ZM16.6984 19.1099L17.2114 18.2515C17.2065 18.2486 17.2016 18.2457 17.1967 18.2429L16.6984 19.1099ZM15.9774 18.6416L15.3811 19.4443C15.3876 19.4492 15.3942 19.4539 15.4008 19.4586L15.9774 18.6416ZM15.3189 18.0742L14.5938 18.763L14.6031 18.7725L15.3189 18.0742ZM14.7562 17.3852L13.9328 17.9527L13.9329 17.9527L14.7562 17.3852ZM14.2394 16.5071L15.1336 16.0594L15.1336 16.0594L14.2394 16.5071ZM14.6437 15.2688L15.3485 15.9782L15.3501 15.9766L14.6437 15.2688ZM15.4022 14.3907L16.3141 14.8013C16.3164 14.7961 16.3187 14.7908 16.321 14.7855L15.4022 14.3907ZM15.5231 14.008L16.5126 14.1526C16.5149 14.1367 16.5168 14.1209 16.5184 14.1049L15.5231 14.008ZM15.5148 13.6477L14.521 13.7592C14.5223 13.7709 14.5238 13.7826 14.5255 13.7942L15.5148 13.6477ZM14.6312 11.8015L13.7439 12.2627L13.7451 12.2649L14.6312 11.8015ZM13.5809 9.96427L12.8709 10.6684C12.8758 10.6734 12.8808 10.6783 12.8859 10.6832L13.5809 9.96427ZM16.1829 34C24.9882 34 31.9977 26.315 31.9977 17H29.9977C29.9977 25.3581 23.7415 32 16.1829 32V34ZM6.98005 30.8276C9.56717 32.8204 12.7451 34 16.1829 34V32C13.2139 32 10.4601 30.9836 8.20048 29.2432L6.98005 30.8276ZM2.94805 33.1188L7.98509 30.9542L7.19544 29.1166L2.1584 31.2812L2.94805 33.1188ZM3.49801 26.4319L1.60858 31.8719L3.49787 32.5281L5.3873 27.0881L3.49801 26.4319ZM0.368042 17C0.368042 20.8835 1.5804 24.4713 3.62873 27.341L5.25658 26.179C3.44904 23.6467 2.36804 20.4647 2.36804 17H0.368042ZM16.1829 0C7.3775 0 0.368042 7.68502 0.368042 17H2.36804C2.36804 8.64187 8.62422 2 16.1829 2V0ZM31.9977 17C31.9977 7.68502 24.9882 0 16.1829 0V2C23.7415 2 29.9977 8.64187 29.9977 17H31.9977ZM12.8015 10.6401C12.7893 10.6401 12.7816 10.6396 12.7796 10.6395C12.7773 10.6394 12.7777 10.6393 12.7809 10.6397C12.7878 10.6404 12.7999 10.6419 12.8157 10.6445C12.8313 10.6471 12.8468 10.6502 12.8603 10.6532C12.8669 10.6547 12.8723 10.6561 12.8763 10.6571C12.8803 10.6582 12.8821 10.6587 12.8817 10.6586L13.4716 8.74759C13.2797 8.68833 13.0125 8.64005 12.8015 8.64005V10.6401ZM12.4598 10.7613C12.5725 10.7226 12.692 10.6871 12.7893 10.6617C12.8379 10.649 12.8748 10.6405 12.8981 10.6357C12.9097 10.6334 12.9135 10.6328 12.9107 10.6333C12.909 10.6335 12.9036 10.6343 12.8951 10.6353C12.8871 10.6362 12.8716 10.6378 12.8506 10.6388L12.7525 8.64126C12.5872 8.64937 12.3914 8.69859 12.2845 8.72645C12.1401 8.76413 11.972 8.81417 11.8096 8.86999L12.4598 10.7613ZM11.8437 10.9903C11.9133 10.9602 12.1938 10.8528 12.4598 10.7613L11.8096 8.86999C11.5255 8.96766 11.1892 9.09439 11.0503 9.1544L11.8437 10.9903ZM11.576 11.162C11.6291 11.1255 11.6974 11.0812 11.7623 11.0415C11.7944 11.0219 11.8227 11.0052 11.8454 10.9924C11.8704 10.9783 11.8797 10.9739 11.8764 10.9755L11.0177 9.1692C10.8398 9.25378 10.5911 9.41204 10.4429 9.514L11.576 11.162ZM11.2307 11.4631C11.2676 11.4232 11.3316 11.362 11.4081 11.296C11.4855 11.2291 11.548 11.1813 11.576 11.162L10.4429 9.514C10.2456 9.64963 9.95584 9.89607 9.76288 10.1046L11.2307 11.4631ZM10.9247 11.8157C10.9225 11.8189 10.9299 11.8079 10.952 11.7799C10.9722 11.7542 10.9983 11.7225 11.0289 11.6866C11.0906 11.6143 11.1606 11.5368 11.2208 11.4736L9.77279 10.094C9.6216 10.2527 9.38668 10.517 9.26036 10.7066L10.9247 11.8157ZM10.7166 12.199C10.7794 12.0633 10.8843 11.8762 10.9247 11.8157L9.26036 10.7066C9.15064 10.8712 8.99717 11.1524 8.90157 11.359L10.7166 12.199ZM10.5183 12.7369C10.5636 12.5831 10.6602 12.3243 10.7207 12.19L8.89749 11.3679C8.79967 11.5849 8.67117 11.9295 8.59977 12.1719L10.5183 12.7369ZM10.3913 13.334C10.414 13.1692 10.4747 12.8849 10.5183 12.7369L8.59977 12.1719C8.52666 12.4202 8.44567 12.8023 8.41003 13.0609L10.3913 13.334ZM10.3743 14.0467C10.3603 13.7734 10.3719 13.4939 10.3933 13.3188L8.40805 13.0761C8.37111 13.3783 8.35769 13.7742 8.37698 14.1494L10.3743 14.0467ZM10.4766 14.8256C10.4316 14.6239 10.3883 14.3102 10.3743 14.0452L8.37705 14.1508C8.39638 14.5162 8.45313 14.9411 8.52475 15.2617L10.4766 14.8256ZM10.757 15.7032C10.6492 15.4181 10.5194 14.9961 10.471 14.8019L8.53036 15.2854C8.59867 15.5596 8.75229 16.0562 8.88622 16.4105L10.757 15.7032ZM11.2251 16.8301C11.0799 16.5163 10.8669 16.0082 10.7625 15.7182L8.8807 16.3955C9.00969 16.7539 9.24686 17.3175 9.41004 17.6701L11.2251 16.8301ZM11.7732 17.9092C11.6207 17.6373 11.3698 17.1429 11.2251 16.8301L9.41004 17.6701C9.57372 18.0238 9.84796 18.5651 10.0289 18.8876L11.7732 17.9092ZM12.4453 18.973C12.23 18.6655 11.9228 18.1758 11.7732 17.9092L10.0289 18.8876C10.2128 19.2154 10.5557 19.7614 10.8072 20.1204L12.4453 18.973ZM13.3648 20.1015C13.0383 19.7529 12.6765 19.3033 12.4455 18.9733L10.8069 20.12C11.0928 20.5285 11.5145 21.0516 11.9049 21.4685L13.3648 20.1015ZM14.4136 21.1003C14.1105 20.8527 13.6954 20.4628 13.3727 20.11L11.897 21.46C12.2828 21.8817 12.7679 22.3384 13.1483 22.6492L14.4136 21.1003ZM15.3916 21.8216C15.148 21.6621 14.697 21.332 14.414 21.1005L13.148 22.6489C13.4818 22.9218 13.9894 23.2941 14.2959 23.4948L15.3916 21.8216ZM16.3818 22.4088C16.0952 22.254 15.6404 21.9846 15.3916 21.8216L14.2959 23.4948C14.5972 23.6921 15.101 23.9901 15.4312 24.1685L16.3818 22.4088ZM17.403 22.9045C17.1389 22.792 16.6666 22.5627 16.3818 22.4088L15.4312 24.1685C15.7632 24.3478 16.2912 24.6048 16.619 24.7445L17.403 22.9045ZM18.2095 23.2058C18.0588 23.1651 17.6841 23.0285 17.4147 22.9096L16.6072 24.7394C16.9297 24.8817 17.4052 25.0603 17.688 25.1366L18.2095 23.2058ZM18.8863 23.3072C18.6287 23.2965 18.3906 23.2571 18.2214 23.2091L17.6761 25.1334C18.0153 25.2295 18.4107 25.2892 18.8033 25.3055L18.8863 23.3072ZM19.5112 23.2934C19.4009 23.3121 19.1788 23.3237 18.9016 23.308L18.788 25.3047C19.1442 25.325 19.5307 25.3186 19.8454 25.2653L19.5112 23.2934ZM20.0201 23.1625C19.8873 23.2082 19.6393 23.2714 19.5089 23.2938L19.8477 25.2649C20.0841 25.2242 20.4362 25.1343 20.6703 25.0539L20.0201 23.1625ZM20.5046 22.9531C20.3861 23.0154 20.1539 23.1165 20.0201 23.1625L20.6703 25.0539C20.9032 24.9738 21.2294 24.8317 21.4361 24.7229L20.5046 22.9531ZM20.815 22.759C20.8152 22.7589 20.8044 22.7675 20.7794 22.785C20.7562 22.8013 20.7271 22.8208 20.6941 22.8418C20.6263 22.8851 20.5567 22.9257 20.5046 22.9531L21.4361 24.7229C21.635 24.6182 21.9105 24.4473 22.0842 24.3046L20.815 22.759ZM21.1784 22.3892C21.1105 22.4663 21.0302 22.5521 20.9572 22.6258C20.9209 22.6624 20.8893 22.693 20.8643 22.7163C20.8363 22.7424 20.828 22.7485 20.8356 22.7425L22.0636 24.3211C22.2472 24.1783 22.512 23.901 22.6795 23.7108L21.1784 22.3892ZM21.5082 21.9182C21.4536 22.0235 21.2931 22.2588 21.1784 22.3892L22.6795 23.7108C22.8898 23.4719 23.1461 23.1039 23.2832 22.8399L21.5082 21.9182ZM21.7825 21.1999C21.7041 21.4657 21.5676 21.8039 21.5082 21.9182L23.2832 22.8399C23.4156 22.585 23.5958 22.1216 23.7007 21.766L21.7825 21.1999ZM21.9418 20.5803C21.9434 20.5623 21.9436 20.5705 21.9341 20.6186C21.9259 20.6597 21.9141 20.7137 21.8987 20.7774C21.8679 20.9053 21.8275 21.0539 21.7861 21.1882L23.6972 21.7778C23.7941 21.4637 23.9103 21.0122 23.9333 20.7646L21.9418 20.5803ZM21.9379 20.4865C21.9427 20.5026 21.9474 20.5234 21.9425 20.5728L23.9325 20.772C23.9609 20.4882 23.9407 20.2028 23.8538 19.9127L21.9379 20.4865ZM21.8915 20.4146C21.8915 20.4146 21.8927 20.416 21.8949 20.4189C21.8971 20.4217 21.8999 20.4256 21.9033 20.4305C21.9102 20.4405 21.9176 20.4524 21.9247 20.4651C21.9318 20.4779 21.9371 20.4888 21.9404 20.4963C21.944 20.5044 21.9432 20.504 21.9403 20.4944L23.8514 19.9048C23.7675 19.6327 23.6023 19.3367 23.4083 19.111L21.8915 20.4146ZM20.4939 19.5194C21.0781 19.8733 21.4334 20.0951 21.6571 20.2457C21.8951 20.4059 21.9129 20.4397 21.8882 20.4107L23.4117 19.1149C23.2453 18.9193 23.0276 18.7573 22.7738 18.5865C22.5057 18.4061 22.1129 18.1618 21.5302 17.8088L20.4939 19.5194ZM19.039 18.6545C18.9782 18.6335 18.9436 18.6135 18.9807 18.6323C18.9991 18.6417 19.0294 18.6577 19.0731 18.6816C19.1595 18.729 19.279 18.7968 19.4247 18.8813C19.715 19.0496 20.094 19.2754 20.4911 19.5177L21.5329 17.8104C21.1257 17.562 20.7336 17.3284 20.428 17.1511C20.2757 17.0628 20.1409 16.9862 20.0346 16.9279C19.9699 16.8924 19.8175 16.8076 19.6925 16.7643L19.039 18.6545ZM19.0809 18.6582C19.0715 18.6593 19.0648 18.6597 19.0612 18.6598C19.0574 18.66 19.0554 18.66 19.0551 18.66C19.055 18.66 19.0575 18.66 19.0611 18.6604C19.0649 18.6609 19.0652 18.6611 19.0612 18.6602C19.0583 18.6596 19.042 18.656 19.0154 18.6461L19.7161 16.7728C19.4459 16.6717 19.1194 16.6415 18.8587 16.6706L19.0809 18.6582ZM19.0283 18.6748C19.0235 18.6774 19.0214 18.6784 19.0223 18.678C19.023 18.6776 19.0255 18.6765 19.0297 18.6748C19.0384 18.6712 19.0498 18.667 19.062 18.6632C19.0678 18.6614 19.073 18.6599 19.0773 18.6587C19.0817 18.6575 19.0844 18.6569 19.0853 18.6567C19.0863 18.6565 19.0841 18.657 19.0788 18.6578C19.0738 18.6586 19.0629 18.6602 19.0468 18.6614L18.8929 16.6674C18.6118 16.6891 18.2936 16.7986 18.0777 16.9152L19.0283 18.6748ZM18.5006 19.2641C18.7221 19.0049 18.8678 18.8438 18.9684 18.7427C19.0778 18.6326 19.0853 18.6441 19.0283 18.6748L18.0777 16.9152C17.8708 17.027 17.6969 17.1848 17.5501 17.3325C17.3943 17.4892 17.2087 17.6973 16.98 17.965L18.5006 19.2641ZM17.0943 20.3215C17.3201 20.3215 17.484 20.244 17.5246 20.2248C17.5891 20.1943 17.6371 20.1632 17.6616 20.1467C17.7121 20.1126 17.7503 20.0803 17.7678 20.0653C17.8069 20.0316 17.8421 19.9971 17.8659 19.9734C17.9175 19.9219 17.978 19.8573 18.0401 19.7893C18.1668 19.6505 18.33 19.4646 18.5019 19.2627L16.9788 17.9664C16.8172 18.1563 16.6699 18.3238 16.5633 18.4406C16.5087 18.5004 16.4718 18.5391 16.452 18.5589C16.44 18.5708 16.4461 18.5641 16.4634 18.5491C16.4699 18.5435 16.4991 18.5184 16.5425 18.4891C16.5634 18.475 16.6084 18.4457 16.6703 18.4164C16.7021 18.4014 16.7508 18.3805 16.8125 18.3622C16.8709 18.345 16.9696 18.3215 17.0943 18.3215V20.3215ZM16.1854 19.9682C16.2923 20.0322 16.399 20.0933 16.4878 20.1409C16.5307 20.1638 16.5799 20.1894 16.6276 20.2116C16.6502 20.2221 16.6866 20.2385 16.7294 20.2544C16.7505 20.2623 16.786 20.2749 16.8302 20.2866C16.8596 20.2945 16.9616 20.3215 17.0943 20.3215V18.3215C17.1674 18.3215 17.2256 18.3297 17.2596 18.3355C17.2961 18.3417 17.3257 18.3489 17.3457 18.3542C17.3844 18.3646 17.4134 18.375 17.427 18.38C17.4425 18.3858 17.4538 18.3906 17.4597 18.3931C17.4659 18.3957 17.47 18.3976 17.4713 18.3982C17.4731 18.3991 17.4616 18.3936 17.433 18.3783C17.3791 18.3494 17.3003 18.3046 17.2114 18.2515L16.1854 19.9682ZM15.4008 19.4586C15.6181 19.6119 15.9669 19.8429 16.2001 19.9769L17.1967 18.2429C17.0381 18.1517 16.7451 17.9594 16.5539 17.8245L15.4008 19.4586ZM14.6031 18.7725C14.8104 18.985 15.1485 19.2715 15.3811 19.4443L16.5737 17.8388C16.4062 17.7144 16.1524 17.4966 16.0347 17.3759L14.6031 18.7725ZM13.9329 17.9527C14.1125 18.2134 14.4009 18.5598 14.5938 18.7629L16.0439 17.3855C15.9118 17.2464 15.6917 16.9804 15.5796 16.8177L13.9329 17.9527ZM13.3452 16.9549C13.5034 17.2708 13.7605 17.7026 13.9328 17.9527L15.5796 16.8177C15.4603 16.6446 15.2505 16.2929 15.1336 16.0594L13.3452 16.9549ZM12.9894 15.9668C12.9894 16.1027 13.0183 16.2083 13.0228 16.2259C13.0329 16.2645 13.0433 16.2959 13.0497 16.3141C13.0627 16.3516 13.0764 16.3856 13.0861 16.4087C13.1065 16.4576 13.1314 16.5128 13.1562 16.5661C13.2071 16.6753 13.2742 16.8129 13.3452 16.9549L15.1336 16.0594C15.0671 15.9267 15.0092 15.8076 14.9694 15.7221C14.9489 15.678 14.9371 15.6512 14.9321 15.6392C14.9291 15.6319 14.933 15.6406 14.9393 15.6589C14.9422 15.6674 14.9502 15.6907 14.9585 15.7226C14.9627 15.739 14.9692 15.7656 14.975 15.7991C14.978 15.8163 14.9813 15.8386 14.9841 15.8647C14.9867 15.8902 14.9894 15.9252 14.9894 15.9668H12.9894ZM13.9389 14.5594C13.7519 14.7452 13.5797 14.9216 13.4512 15.0586C13.3882 15.1258 13.3285 15.1911 13.281 15.2466C13.259 15.2723 13.2278 15.3096 13.1976 15.3505C13.1839 15.3691 13.156 15.4078 13.1271 15.4578C13.1129 15.4823 13.0876 15.5281 13.0632 15.5883C13.0467 15.629 12.9894 15.7727 12.9894 15.9668H14.9894C14.9894 16.0734 14.9722 16.1586 14.959 16.2105C14.9452 16.2652 14.9291 16.309 14.9172 16.3386C14.8939 16.3959 14.8703 16.4384 14.8584 16.4591C14.8339 16.5014 14.8126 16.5303 14.8076 16.5371C14.7948 16.5545 14.7892 16.5602 14.8002 16.5474C14.8187 16.5257 14.8546 16.4858 14.9099 16.4269C15.018 16.3117 15.1729 16.1527 15.3485 15.9782L13.9389 14.5594ZM14.4904 13.9802C14.5126 13.9309 14.5208 13.9408 14.4229 14.054C14.3297 14.1618 14.181 14.3178 13.9373 14.561L15.3501 15.9766C15.5982 15.729 15.7912 15.5293 15.9356 15.3623C16.0753 15.2009 16.2169 15.0172 16.3141 14.8013L14.4904 13.9802ZM14.5336 13.8634C14.5359 13.8478 14.5379 13.8382 14.5383 13.8361C14.5389 13.8335 14.5388 13.8341 14.5377 13.8383C14.5355 13.8471 14.5312 13.8624 14.5248 13.8828C14.5112 13.9256 14.4954 13.9682 14.4835 13.9959L16.321 14.7855C16.3914 14.6217 16.4822 14.3602 16.5126 14.1526L14.5336 13.8634ZM14.5255 13.7942C14.5249 13.7899 14.5257 13.794 14.5266 13.8077C14.5275 13.8205 14.5281 13.8364 14.5284 13.8539C14.5287 13.8714 14.5285 13.8874 14.5281 13.9C14.5277 13.9139 14.5272 13.9173 14.5278 13.911L16.5184 14.1049C16.5334 13.9508 16.5343 13.7059 16.504 13.5012L14.5255 13.7942ZM13.7451 12.2649C14.0616 12.8702 14.2711 13.2809 14.4024 13.555C14.4684 13.6929 14.508 13.7826 14.5301 13.8379C14.5628 13.9196 14.5332 13.8682 14.521 13.7592L16.5085 13.5362C16.488 13.353 16.423 13.185 16.3874 13.0959C16.3412 12.9804 16.2798 12.8449 16.2062 12.6912C16.0582 12.3822 15.8343 11.9441 15.5173 11.3381L13.7451 12.2649ZM12.8859 10.6832C12.8509 10.6495 12.8816 10.6641 13.0405 10.9427C13.1866 11.1988 13.4007 11.6025 13.7439 12.2627L15.5185 11.3403C15.1782 10.6857 14.9463 10.2473 14.7777 9.95172C14.622 9.67876 14.4693 9.43219 14.276 9.2453L12.8859 10.6832ZM12.8859 10.6599C12.8649 10.6535 12.8513 10.6475 12.8451 10.6445C12.8387 10.6414 12.8368 10.64 12.8389 10.6413C12.8409 10.6426 12.8452 10.6456 12.8512 10.6505C12.8572 10.6554 12.8639 10.6614 12.8709 10.6684L14.291 9.26013C14.0819 9.04928 13.7984 8.84688 13.4674 8.74629L12.8859 10.6599Z" fill="white"/>
</svg>
