<svg width="30" height="32" viewBox="0 0 30 32" fill="none" xmlns="http://www.w3.org/2000/svg">
<mask id="path-1-inside-1_301_157" fill="white">
<path fill-rule="evenodd" clip-rule="evenodd" d="M11.368 0C5.29291 0 0.368042 4.92487 0.368042 11V21C0.368042 27.0751 5.29291 32 11.368 32H18.9977C25.0728 32 29.9977 27.0751 29.9977 21V11C29.9977 4.92487 25.0728 0 18.9977 0H11.368ZM8.36339 11.8536C8.33124 11.8667 8.26292 11.9191 8.21068 11.9715C8.13834 12.0458 8.12226 12.1113 8.12226 12.3035C8.12226 12.4345 8.17451 12.7403 8.23479 12.9806C8.29909 13.2208 8.43573 13.6532 8.54424 13.9415C8.64873 14.2298 8.86172 14.7365 9.01042 15.0685C9.16313 15.3961 9.40828 15.8897 9.55698 16.1605C9.70166 16.427 9.93073 16.8289 10.0633 17.0429C10.196 17.2613 10.3969 17.5714 10.5094 17.7418C10.6179 17.9121 10.843 18.2135 11.0037 18.4188C11.1645 18.6241 11.4096 18.8993 11.5463 19.0348C11.6869 19.1702 11.9281 19.3798 12.0808 19.5065C12.2335 19.6332 12.5148 19.8298 12.7037 19.9477C12.8926 20.0656 13.2181 20.2316 13.4271 20.319C13.6361 20.4107 13.9737 20.5199 14.1706 20.568C14.4197 20.6291 14.685 20.6553 15.0346 20.6597C15.3119 20.6597 15.6133 20.6378 15.7098 20.6116C15.8022 20.5811 15.9268 20.5112 15.9871 20.4544L16.0996 20.3496L16.1398 18.1917C16.3046 18.0519 16.401 18.0214 16.5015 18.0257C16.5899 18.0257 16.7667 18.0781 16.9034 18.1524C17.036 18.2179 17.245 18.3577 17.3655 18.4582C17.4861 18.563 17.9844 19.0828 18.4707 19.6157C19.2825 20.5155 19.3709 20.5942 19.5477 20.6422C19.6562 20.6684 20.0782 20.6903 20.5283 20.6903C20.9664 20.6903 21.3884 20.6728 21.4647 20.651C21.5411 20.6247 21.6496 20.568 21.7058 20.5199C21.7902 20.45 21.8063 20.3976 21.8063 20.2229C21.8063 20.0744 21.7701 19.9302 21.6777 19.7293C21.6054 19.572 21.4366 19.2881 21.304 19.0959C21.1673 18.9037 20.8458 18.48 20.5806 18.1568C20.3194 17.8335 19.9617 17.4186 19.7889 17.2351C19.6161 17.0516 19.4433 16.8289 19.399 16.7328C19.3589 16.6367 19.3388 16.5187 19.3508 16.4663C19.3629 16.4095 19.6723 15.881 20.034 15.2869C20.3957 14.6885 20.8217 13.959 20.9784 13.6576C21.1352 13.3562 21.32 12.9674 21.3843 12.7971C21.4527 12.6224 21.517 12.3952 21.529 12.2948C21.5531 12.1331 21.5411 12.0895 21.4527 11.9759L21.3522 11.8448C19.4232 11.8186 19.391 11.823 19.2142 11.9191C19.0374 12.0152 19.0213 12.0458 18.5913 12.9806C18.3461 13.5091 18.0407 14.1294 17.9081 14.3565C17.7754 14.5836 17.5584 14.9287 17.4258 15.1209C17.2932 15.3131 17.0842 15.5752 16.9636 15.7063C16.8431 15.8373 16.6863 15.9771 16.622 16.0251C16.5577 16.0688 16.4573 16.1038 16.401 16.1038C16.3447 16.1038 16.2804 16.0863 16.2523 16.0688C16.2282 16.0513 16.188 15.9858 16.1639 15.9203C16.1358 15.8373 16.1197 15.1821 16.1197 14.0071C16.1197 12.5132 16.1117 12.1899 16.0594 12.0632C16.0273 11.9803 15.9549 11.8929 15.8987 11.8667C15.8384 11.8405 15.2798 11.823 14.5202 11.823C13.5758 11.823 13.2221 11.8405 13.1458 11.8798C13.0895 11.9104 13.0212 11.9934 12.989 12.0632C12.9609 12.1375 12.9448 12.2336 12.9609 12.2817C12.973 12.3297 13.0734 12.5088 13.186 12.6748C13.2985 12.8408 13.4191 13.0679 13.4552 13.1771C13.5115 13.3431 13.5276 13.6139 13.5396 14.9025C13.5477 15.9116 13.5396 16.4881 13.5115 16.5973C13.4753 16.7197 13.4432 16.7633 13.3588 16.7852C13.2945 16.7983 13.2061 16.7983 13.1578 16.7852C13.1056 16.7721 12.9448 16.6279 12.7961 16.4663C12.6434 16.3003 12.4023 15.9727 12.2536 15.7325C12.1089 15.4922 11.8799 15.0816 11.7472 14.8152C11.6106 14.5487 11.4177 14.1294 11.3132 13.876C11.2127 13.6227 11.0279 13.1422 10.9113 12.8058C10.7908 12.4695 10.6622 12.1462 10.622 12.0851C10.5818 12.0239 10.4853 11.9409 10.409 11.9016C10.2884 11.8317 10.1518 11.823 9.348 11.8274C8.83761 11.8274 8.39554 11.8405 8.36339 11.8536Z"/>
</mask>
<path d="M8.21068 11.9715L6.79414 10.5596L6.78606 10.5677L6.77807 10.5759L8.21068 11.9715ZM8.23479 12.9806L6.29492 13.4673L6.29874 13.4825L6.30279 13.4976L8.23479 12.9806ZM8.54424 13.9415L10.4245 13.26L10.4204 13.2485L10.416 13.237L8.54424 13.9415ZM9.01042 15.0685L7.18515 15.8861L7.19132 15.8998L7.1977 15.9135L9.01042 15.0685ZM9.55698 16.1605L11.3146 15.2062L11.3101 15.198L9.55698 16.1605ZM10.0633 17.0429L11.7729 16.0048L11.7682 15.9971L11.7634 15.9895L10.0633 17.0429ZM10.5094 17.7418L12.1963 16.6673L12.1874 16.6533L12.1782 16.6395L10.5094 17.7418ZM11.0037 18.4188L9.42904 19.6518L9.42905 19.6519L11.0037 18.4188ZM11.5463 19.0348L10.1385 20.4553L10.1488 20.4655L10.1592 20.4756L11.5463 19.0348ZM12.7037 19.9477L11.6444 21.6441L11.6444 21.6441L12.7037 19.9477ZM13.4271 20.319L14.231 18.4876L14.2148 18.4805L14.1985 18.4737L13.4271 20.319ZM14.1706 20.568L14.6473 18.6256L14.6447 18.625L14.1706 20.568ZM15.0346 20.6597L15.0096 22.6595L15.0221 22.6597H15.0346V20.6597ZM15.7098 20.6116L16.2342 22.5417L16.2865 22.5275L16.3379 22.5104L15.7098 20.6116ZM15.9871 20.4544L14.6237 18.991L14.6157 18.9986L15.9871 20.4544ZM16.0996 20.3496L17.4629 21.8129L18.0835 21.2348L18.0993 20.3868L16.0996 20.3496ZM16.1398 18.1917L14.846 16.6666L14.157 17.2511L14.1401 18.1545L16.1398 18.1917ZM16.5015 18.0257L16.4146 20.0238L16.458 20.0257H16.5015V18.0257ZM16.9034 18.1524L15.9484 19.9097L15.9826 19.9283L16.0175 19.9455L16.9034 18.1524ZM17.3655 18.4582L18.6779 16.9489L18.662 16.9351L18.6459 16.9217L17.3655 18.4582ZM18.4707 19.6157L19.9557 18.276L19.9481 18.2676L18.4707 19.6157ZM19.5477 20.6422L19.0233 22.5722L19.0506 22.5797L19.0782 22.5863L19.5477 20.6422ZM21.4647 20.651L22.0147 22.5739L22.0648 22.5595L22.1141 22.5426L21.4647 20.651ZM21.7058 20.5199L20.4302 18.9795L20.4186 18.9892L20.4071 18.999L21.7058 20.5199ZM21.6777 19.7293L19.8607 20.5651L19.8607 20.5651L21.6777 19.7293ZM21.304 19.0959L22.9501 17.96L22.9421 17.9485L22.934 17.937L21.304 19.0959ZM20.5806 18.1568L19.025 19.4139L19.0297 19.4197L19.0345 19.4254L20.5806 18.1568ZM19.7889 17.2351L18.333 18.6064L18.333 18.6064L19.7889 17.2351ZM19.399 16.7328L17.5539 17.5044L17.5674 17.5367L17.5821 17.5686L19.399 16.7328ZM19.3508 16.4663L21.2999 16.9146L21.3037 16.8982L21.3072 16.8817L19.3508 16.4663ZM20.034 15.2869L21.7423 16.327L21.7457 16.3214L20.034 15.2869ZM20.9784 13.6576L22.7529 14.5803L22.7529 14.5803L20.9784 13.6576ZM21.3843 12.7971L19.5217 12.0687L19.5174 12.0798L19.5132 12.0908L21.3843 12.7971ZM21.529 12.2948L19.5509 11.9996L19.5467 12.028L19.5433 12.0565L21.529 12.2948ZM21.4527 11.9759L19.8655 13.1928L19.87 13.1986L19.8745 13.2045L21.4527 11.9759ZM21.3522 11.8448L22.9394 10.628L22.3492 9.8582L21.3794 9.84503L21.3522 11.8448ZM19.2142 11.9191L20.1692 13.6764L20.1692 13.6764L19.2142 11.9191ZM18.5913 12.9806L20.4056 13.8221L20.4082 13.8164L18.5913 12.9806ZM17.9081 14.3565L19.6352 15.3649L19.6352 15.3649L17.9081 14.3565ZM17.4258 15.1209L15.7797 13.985L15.7797 13.985L17.4258 15.1209ZM16.9636 15.7063L18.4355 17.0604L18.4355 17.0604L16.9636 15.7063ZM16.622 16.0251L17.7459 17.6795L17.7831 17.6542L17.8192 17.6273L16.622 16.0251ZM16.2523 16.0688L15.0788 17.6883L15.1365 17.7302L15.1971 17.7678L16.2523 16.0688ZM16.1639 15.9203L14.2698 16.5623L14.278 16.5868L14.287 16.611L16.1639 15.9203ZM16.0594 12.0632L14.1945 12.7857L14.2023 12.8058L14.2105 12.8258L16.0594 12.0632ZM15.8987 11.8667L16.7432 10.0537L16.7198 10.0428L16.6961 10.0325L15.8987 11.8667ZM13.1458 11.8798L12.2303 10.1016L12.2104 10.1119L12.1908 10.1225L13.1458 11.8798ZM12.989 12.0632L11.1721 11.2274L11.1432 11.2901L11.1188 11.3547L12.989 12.0632ZM12.9609 12.2817L14.9008 11.7949L14.882 11.7202L14.8576 11.6471L12.9609 12.2817ZM13.186 12.6748L14.8414 11.5525L14.8414 11.5525L13.186 12.6748ZM13.4552 13.1771L11.5566 13.806L11.5611 13.8192L13.4552 13.1771ZM13.5396 14.9025L15.5396 14.8866L15.5395 14.8838L13.5396 14.9025ZM13.5115 16.5973L15.4294 17.1645L15.4394 17.1306L15.4483 17.0963L13.5115 16.5973ZM13.3588 16.7852L13.7581 18.7449L13.8093 18.7345L13.8598 18.7214L13.3588 16.7852ZM13.1578 16.7852L13.6822 14.8552L13.6634 14.85L13.6444 14.8453L13.1578 16.7852ZM12.7961 16.4663L11.3243 17.8204L11.3243 17.8204L12.7961 16.4663ZM12.2536 15.7325L10.5403 16.7642L10.5466 16.7747L10.553 16.785L12.2536 15.7325ZM11.7472 14.8152L13.5377 13.924L13.5324 13.9132L13.5269 13.9025L11.7472 14.8152ZM11.3132 13.876L9.45405 14.6133L9.45908 14.626L9.46428 14.6386L11.3132 13.876ZM10.9113 12.8058L12.8011 12.151L12.7976 12.141L12.794 12.131L10.9113 12.8058ZM10.622 12.0851L12.2934 10.9867L12.2933 10.9867L10.622 12.0851ZM10.409 11.9016L9.40594 13.6319L9.4491 13.6569L9.49346 13.6798L10.409 11.9016ZM9.348 11.8274V13.8274L9.35887 13.8273L9.348 11.8274ZM2.36804 11C2.36804 6.02944 6.39748 2 11.368 2V-2C4.18834 -2 -1.63196 3.8203 -1.63196 11H2.36804ZM2.36804 21V11H-1.63196V21H2.36804ZM11.368 30C6.39748 30 2.36804 25.9706 2.36804 21H-1.63196C-1.63196 28.1797 4.18834 34 11.368 34V30ZM18.9977 30H11.368V34H18.9977V30ZM27.9977 21C27.9977 25.9706 23.9682 30 18.9977 30V34C26.1774 34 31.9977 28.1797 31.9977 21H27.9977ZM27.9977 11V21H31.9977V11H27.9977ZM18.9977 2C23.9682 2 27.9977 6.02944 27.9977 11H31.9977C31.9977 3.8203 26.1774 -2 18.9977 -2V2ZM11.368 2H18.9977V-2H11.368V2ZM9.62721 13.3834C9.58766 13.4231 9.55176 13.4539 9.51548 13.4819C9.49639 13.4966 9.46332 13.5212 9.41759 13.5507C9.39427 13.5658 9.36024 13.5869 9.31729 13.6106C9.27758 13.6326 9.20876 13.6688 9.11829 13.7056L7.60849 10.0015C7.32236 10.1181 7.11435 10.2823 7.07366 10.3137C6.98212 10.3843 6.88594 10.4675 6.79414 10.5596L9.62721 13.3834ZM10.1223 12.3035C10.1223 12.2772 10.1231 12.2948 10.12 12.3342C10.1169 12.3744 10.1074 12.4731 10.0736 12.6017C10.0367 12.7421 9.97659 12.8969 9.88416 13.0519C9.79508 13.2013 9.70239 13.3064 9.64328 13.3671L6.77807 10.5759C6.54703 10.8131 6.32134 11.1424 6.20505 11.5848C6.12005 11.9082 6.12226 12.2031 6.12226 12.3035H10.1223ZM10.1747 12.4938C10.1584 12.4291 10.1409 12.3448 10.1284 12.2704C10.1223 12.2341 10.1193 12.2112 10.1183 12.2026C10.1179 12.1986 10.1185 12.2036 10.1194 12.216C10.1202 12.2263 10.1223 12.2577 10.1223 12.3035H6.12226C6.12226 12.6944 6.22787 13.2001 6.29492 13.4673L10.1747 12.4938ZM10.416 13.237C10.3315 13.0125 10.2148 12.6427 10.1668 12.4635L6.30279 13.4976C6.38343 13.7989 6.53994 14.294 6.67243 14.646L10.416 13.237ZM10.8357 14.2509C10.6952 13.9372 10.5048 13.4814 10.4245 13.26L6.66393 14.623C6.79267 14.9782 7.02827 15.5358 7.18515 15.8861L10.8357 14.2509ZM11.3101 15.198C11.1896 14.9786 10.9648 14.5273 10.8231 14.2235L7.1977 15.9135C7.3615 16.2649 7.62692 16.8009 7.80385 17.1231L11.3101 15.198ZM11.7634 15.9895C11.6585 15.8201 11.4495 15.4546 11.3146 15.2062L7.79936 17.1149C7.95383 17.3994 8.20297 17.8376 8.36325 18.0963L11.7634 15.9895ZM12.1782 16.6395C12.0705 16.4764 11.8858 16.1909 11.7729 16.0048L8.35384 18.081C8.50609 18.3317 8.7233 18.6665 8.84064 18.8441L12.1782 16.6395ZM12.5785 17.1859C12.422 16.986 12.2488 16.7497 12.1963 16.6673L8.82256 18.8162C8.98713 19.0746 9.26402 19.4411 9.42904 19.6518L12.5785 17.1859ZM12.9541 17.6142C12.9296 17.5899 12.8666 17.5235 12.7825 17.4284C12.7012 17.3364 12.6271 17.2479 12.5785 17.1858L9.42905 19.6519C9.636 19.9162 9.93637 20.255 10.1385 20.4553L12.9541 17.6142ZM13.3577 17.9672C13.2232 17.8556 13.0239 17.6811 12.9334 17.5939L10.1592 20.4756C10.35 20.6592 10.633 20.9041 10.8039 21.0459L13.3577 17.9672ZM13.763 18.2512C13.623 18.1638 13.4206 18.0194 13.3577 17.9672L10.8039 21.0459C11.0464 21.247 11.4067 21.4957 11.6444 21.6441L13.763 18.2512ZM14.1985 18.4737C14.08 18.4242 13.8519 18.3068 13.763 18.2512L11.6444 21.6441C11.9333 21.8245 12.3562 22.039 12.6557 22.1642L14.1985 18.4737ZM14.6447 18.625C14.6142 18.6175 14.5347 18.5952 14.4324 18.5613C14.3281 18.5268 14.2562 18.4987 14.231 18.4876L12.6232 22.1503C12.9541 22.2955 13.4042 22.4396 13.6965 22.511L14.6447 18.625ZM15.0596 18.6598C14.7959 18.6566 14.6956 18.6375 14.6473 18.6256L13.6939 22.5103C14.1439 22.6208 14.5741 22.6541 15.0096 22.6595L15.0596 18.6598ZM15.1854 18.6816C15.2243 18.671 15.2556 18.664 15.2761 18.6597C15.2972 18.6552 15.3139 18.6522 15.3247 18.6503C15.3358 18.6484 15.3439 18.6472 15.3485 18.6465C15.3532 18.6458 15.3558 18.6455 15.356 18.6455C15.3562 18.6454 15.351 18.6461 15.3398 18.6471C15.329 18.6481 15.3147 18.6493 15.2972 18.6506C15.2227 18.6559 15.1256 18.6597 15.0346 18.6597V22.6597C15.2209 22.6597 15.4132 22.6525 15.5828 22.6404C15.6866 22.633 15.972 22.6129 16.2342 22.5417L15.1854 18.6816ZM14.6157 18.9986C14.6939 18.9249 14.7587 18.878 14.7898 18.8564C14.8256 18.8315 14.8549 18.8138 14.8764 18.8017C14.9078 18.7839 14.9741 18.7484 15.0817 18.7128L16.3379 22.5104C16.6445 22.409 17.0422 22.208 17.3584 21.9102L14.6157 18.9986ZM14.7363 18.8862L14.6238 18.991L17.3504 21.9177L17.4629 21.8129L14.7363 18.8862ZM14.1401 18.1545L14.0999 20.3123L18.0993 20.3868L18.1394 18.229L14.1401 18.1545ZM16.5884 16.0276C15.79 15.9929 15.215 16.3535 14.846 16.6666L17.4336 19.7168C17.4306 19.7194 17.4047 19.7413 17.3588 19.7718C17.312 19.8029 17.2361 19.8485 17.1333 19.8926C17.0267 19.9384 16.903 19.9774 16.7654 20.0011C16.6283 20.0247 16.508 20.0279 16.4146 20.0238L16.5884 16.0276ZM17.8584 16.3951C17.6578 16.2861 17.4548 16.2061 17.2756 16.1506C17.1368 16.1077 16.8447 16.0257 16.5015 16.0257V20.0257C16.348 20.0257 16.2379 20.0056 16.1995 19.9981C16.149 19.9882 16.1135 19.9781 16.0931 19.9718C16.0585 19.9611 16.0123 19.9444 15.9484 19.9097L17.8584 16.3951ZM18.6459 16.9217C18.4242 16.737 18.0844 16.5051 17.7892 16.3593L16.0175 19.9455C16.0019 19.9378 15.9925 19.9326 15.9899 19.9312C15.987 19.9296 15.9875 19.9298 15.9915 19.9322C16 19.9373 16.0145 19.9463 16.0328 19.9584C16.0509 19.9704 16.0674 19.982 16.0801 19.9913C16.0942 20.0016 16.0952 20.003 16.0852 19.9946L18.6459 16.9217ZM19.9481 18.2676C19.4905 17.7662 18.9052 17.1466 18.6779 16.9489L16.0532 19.9674C16.0202 19.9387 16.0254 19.9408 16.1013 20.0173C16.1608 20.0773 16.2404 20.1591 16.3353 20.2584C16.5246 20.4565 16.7602 20.7083 16.9933 20.9638L19.9481 18.2676ZM20.0722 18.7122C20.0963 18.7188 20.1583 18.7364 20.2371 18.7684C20.3196 18.802 20.3969 18.8415 20.4666 18.8844C20.5911 18.9609 20.6532 19.0253 20.6235 18.9971C20.5975 18.9725 20.5393 18.914 20.4213 18.7871C20.3072 18.6644 20.1582 18.5004 19.9557 18.276L16.9857 20.9554C17.3705 21.3819 17.6557 21.6953 17.8712 21.8997C17.9871 22.0096 18.1553 22.1589 18.3714 22.2918C18.627 22.449 18.8571 22.5271 19.0233 22.5722L20.0722 18.7122ZM20.5283 18.6903C20.3326 18.6903 20.148 18.6855 20.0095 18.6785C19.9394 18.6751 19.8925 18.6716 19.868 18.6693C19.8557 18.6682 19.8585 18.6682 19.8725 18.6701C19.877 18.6707 19.935 18.6782 20.0173 18.6981L19.0782 22.5863C19.3505 22.6521 19.6836 22.6673 19.8104 22.6736C20.0225 22.6842 20.2739 22.6903 20.5283 22.6903V18.6903ZM20.9148 18.7281C20.9996 18.7038 21.0657 18.6914 21.0929 18.6865C21.1258 18.6806 21.1503 18.6772 21.162 18.6757C21.1849 18.6727 21.1944 18.6722 21.1835 18.6731C21.1634 18.6747 21.1191 18.6776 21.0486 18.6805C20.9107 18.6863 20.7238 18.6903 20.5283 18.6903V22.6903C20.7709 22.6903 21.0141 22.6855 21.2157 22.6771C21.315 22.6729 21.4179 22.6673 21.5121 22.6596C21.5292 22.6581 21.7726 22.6431 22.0147 22.5739L20.9148 18.7281ZM20.4071 18.999C20.4796 18.9371 20.5386 18.8973 20.5677 18.8785C20.6008 18.857 20.6274 18.8419 20.6463 18.8318C20.6748 18.8165 20.7289 18.789 20.8154 18.7593L22.1141 22.5426C22.3577 22.459 22.7076 22.2945 23.0046 22.0408L20.4071 18.999ZM19.8063 20.2229C19.8063 20.2449 19.8054 20.2095 19.811 20.1491C19.8168 20.0858 19.8336 19.9485 19.8905 19.778C19.9529 19.5907 20.0471 19.4121 20.169 19.2529C20.28 19.1079 20.3858 19.0163 20.4302 18.9795L22.9815 22.0603C23.1885 21.8889 23.5101 21.5679 23.685 21.0435C23.8139 20.6569 23.8063 20.3002 23.8063 20.2229H19.8063ZM19.8607 20.5651C19.874 20.5939 19.858 20.5647 19.8403 20.496C19.8198 20.4167 19.8063 20.3219 19.8063 20.2229H23.8063C23.8063 19.6928 23.6616 19.2563 23.4947 18.8934L19.8607 20.5651ZM19.6578 20.2318C19.6925 20.2821 19.7428 20.3607 19.792 20.4438C19.8156 20.4838 19.8351 20.5183 19.8495 20.5448C19.8657 20.5746 19.8676 20.58 19.8607 20.5651L23.4947 18.8934C23.3574 18.5951 23.1207 18.2072 22.9501 17.96L19.6578 20.2318ZM19.0345 19.4254C19.2731 19.7162 19.5663 20.1033 19.6739 20.2548L22.934 17.937C22.7684 17.7041 22.4186 17.2438 22.1267 16.8881L19.0345 19.4254ZM18.333 18.6064C18.459 18.7401 18.782 19.1131 19.025 19.4139L22.1361 16.8997C21.8567 16.5539 21.4644 16.097 21.2447 15.8638L18.333 18.6064ZM17.5821 17.5686C17.7103 17.8473 17.8961 18.0876 17.9656 18.1772C18.0744 18.3174 18.2022 18.4675 18.333 18.6064L21.2447 15.8638C21.2253 15.8432 21.2036 15.819 21.1815 15.7931C21.1594 15.7672 21.1403 15.7437 21.1259 15.7251C21.1188 15.716 21.1139 15.7095 21.1111 15.7057C21.1082 15.7016 21.109 15.7025 21.1128 15.7082C21.1148 15.7112 21.1181 15.7162 21.1226 15.7232C21.127 15.7301 21.1333 15.7402 21.141 15.7531C21.1485 15.7657 21.1587 15.7835 21.1707 15.8058C21.1824 15.8275 21.1983 15.8584 21.216 15.8969L17.5821 17.5686ZM17.4017 16.018C17.3017 16.4529 17.3671 16.8258 17.3862 16.9331C17.4184 17.1142 17.4727 17.3103 17.5539 17.5044L21.2442 15.9611C21.2852 16.0591 21.3094 16.1482 21.3245 16.2332C21.3325 16.278 21.3423 16.3467 21.3459 16.4347C21.3487 16.5024 21.3531 16.6836 21.2999 16.9146L17.4017 16.018ZM18.3257 14.2468C18.1408 14.5506 17.9654 14.8438 17.8321 15.0731C17.7665 15.186 17.7046 15.2946 17.655 15.3857C17.6312 15.4294 17.6015 15.4852 17.5731 15.5431C17.5594 15.5711 17.5375 15.6166 17.5144 15.6713C17.5059 15.6914 17.4378 15.8468 17.3944 16.0509L21.3072 16.8817C21.2821 17 21.2515 17.0893 21.2381 17.1271C21.2219 17.173 21.2073 17.2086 21.1986 17.2291C21.1815 17.2695 21.1679 17.2974 21.1645 17.3043C21.1568 17.3201 21.156 17.3206 21.1686 17.2975C21.1917 17.255 21.232 17.1837 21.2905 17.0831C21.4053 16.8854 21.5656 16.6173 21.7423 16.327L18.3257 14.2468ZM19.204 12.7349C19.081 12.9715 18.6869 13.6492 18.3224 14.2524L21.7457 16.3214C22.1045 15.7278 22.5624 14.9465 22.7529 14.5803L19.204 12.7349ZM19.5132 12.0908C19.5163 12.0825 19.5098 12.0999 19.487 12.1515C19.4665 12.1978 19.4397 12.2562 19.408 12.3232C19.3442 12.4581 19.27 12.608 19.204 12.7349L22.7529 14.5803C22.9148 14.2689 23.1466 13.7917 23.2555 13.5033L19.5132 12.0908ZM19.5433 12.0565C19.546 12.0333 19.5488 12.0144 19.551 12.0007C19.5532 11.9868 19.5552 11.9757 19.5567 11.9678C19.5582 11.9598 19.5595 11.9537 19.5603 11.9498C19.5611 11.9458 19.5617 11.9431 19.562 11.942C19.5625 11.9399 19.5622 11.9414 19.5608 11.9466C19.5595 11.9515 19.5576 11.9585 19.5551 11.9673C19.55 11.9853 19.5436 12.0058 19.5369 12.0261C19.5336 12.036 19.5305 12.0448 19.5277 12.0525C19.525 12.0601 19.5229 12.0656 19.5217 12.0687L23.247 13.5254C23.3405 13.2863 23.4734 12.8779 23.5148 12.5331L19.5433 12.0565ZM19.8745 13.2045C19.8743 13.2042 19.864 13.191 19.8487 13.1694C19.8333 13.1476 19.8075 13.1097 19.778 13.0591C19.7138 12.9492 19.6387 12.7911 19.59 12.5911C19.5001 12.2228 19.5613 11.9303 19.5509 11.9996L23.5071 12.5899C23.5209 12.4976 23.588 12.1025 23.4761 11.6435C23.3569 11.1547 23.0943 10.8288 23.0308 10.7473L19.8745 13.2045ZM19.765 13.0617L19.8655 13.1928L23.0399 10.759L22.9394 10.628L19.765 13.0617ZM20.1692 13.6764C20.1915 13.6642 20.1391 13.694 20.0671 13.7249C19.9806 13.762 19.8916 13.791 19.8053 13.8111C19.6687 13.8429 19.592 13.8387 19.6985 13.8348C19.9062 13.8273 20.3296 13.8311 21.325 13.8447L21.3794 9.84503C20.4457 9.83234 19.8886 9.82528 19.5537 9.83742C19.389 9.84339 19.1505 9.85658 18.8979 9.91541C18.5713 9.99148 18.3453 10.1151 18.2592 10.1618L20.1692 13.6764ZM20.4082 13.8164C20.5176 13.5786 20.5929 13.4152 20.6505 13.2944C20.6787 13.2353 20.6985 13.1952 20.7125 13.1677C20.7269 13.1394 20.7298 13.1352 20.7239 13.1454C20.7144 13.1616 20.6331 13.301 20.4697 13.454C20.3025 13.6106 20.1406 13.6919 20.1692 13.6764L18.2592 10.1618C18.1993 10.1944 17.9692 10.3156 17.7357 10.5341C17.5062 10.7491 17.3608 10.9725 17.2715 11.1252C17.1279 11.3706 16.9628 11.7349 16.7743 12.1447L20.4082 13.8164ZM19.6352 15.3649C19.8219 15.0452 20.1638 14.3435 20.4056 13.8221L16.7769 12.139C16.5285 12.6747 16.2595 13.2135 16.1809 13.3481L19.6352 15.3649ZM19.0719 16.2568C19.2387 16.0151 19.4827 15.6262 19.6352 15.3649L16.1809 13.3481C16.0682 13.5411 15.8781 13.8424 15.7797 13.985L19.0719 16.2568ZM18.4355 17.0604C18.6263 16.853 18.8927 16.5166 19.072 16.2568L15.7797 13.985C15.7456 14.0344 15.6884 14.1114 15.6224 14.1948C15.5535 14.2818 15.5052 14.3376 15.4918 14.3521L18.4355 17.0604ZM17.8192 17.6273C18.002 17.4906 18.2495 17.2625 18.4355 17.0604L15.4918 14.3521C15.487 14.3573 15.4771 14.3677 15.4623 14.3824C15.4479 14.3966 15.4323 14.4114 15.4173 14.4252C15.4021 14.4393 15.3909 14.449 15.3858 14.4534C15.3833 14.4555 15.3844 14.4546 15.3888 14.451C15.3921 14.4483 15.4049 14.4379 15.4249 14.423L17.8192 17.6273ZM16.401 18.1038C16.7575 18.1038 17.0435 18.013 17.1747 17.9666C17.3366 17.9094 17.5404 17.8191 17.7459 17.6795L15.4982 14.3708C15.6394 14.2749 15.7608 14.2238 15.8424 14.195C15.89 14.1782 15.9521 14.1591 16.0282 14.1426C16.0941 14.1284 16.2266 14.1038 16.401 14.1038V18.1038ZM15.1971 17.7678C15.4664 17.9351 15.7193 18.0056 15.8382 18.0349C15.9899 18.0722 16.1825 18.1038 16.401 18.1038V14.1038C16.5633 14.1038 16.6956 14.1266 16.794 14.1508C16.8478 14.164 16.9123 14.1828 16.985 14.2102C17.0479 14.2339 17.1674 14.2828 17.3075 14.3698L15.1971 17.7678ZM14.287 16.611C14.3446 16.7677 14.4163 16.9137 14.4938 17.0426C14.5183 17.0834 14.7096 17.4208 15.0788 17.6883L17.4259 14.4493C17.5479 14.5377 17.6346 14.6222 17.6843 14.6739C17.7378 14.7296 17.7785 14.7788 17.8064 14.8144C17.8613 14.8845 17.8993 14.9439 17.9225 14.9825C17.9678 15.0579 18.0073 15.1384 18.0408 15.2296L14.287 16.611ZM14.1197 14.0071C14.1197 14.6005 14.1237 15.0761 14.1318 15.4201C14.1358 15.59 14.1411 15.744 14.1487 15.8708C14.1524 15.9326 14.1577 16.0074 14.1662 16.0836C14.1679 16.0986 14.1878 16.3205 14.2698 16.5623L18.0581 15.2783C18.106 15.4198 18.1251 15.5319 18.1297 15.5582C18.1371 15.6011 18.1406 15.6316 18.1417 15.6413C18.1439 15.6612 18.1433 15.662 18.1416 15.6323C18.1382 15.5762 18.1342 15.4774 18.1307 15.3263C18.1237 15.0282 18.1197 14.5886 18.1197 14.0071H14.1197ZM14.2105 12.8258C14.1199 12.6061 14.1038 12.4373 14.1036 12.4356C14.1022 12.4236 14.1063 12.4569 14.1101 12.5827C14.1175 12.8296 14.1197 13.2508 14.1197 14.0071H18.1197C18.1197 13.2695 18.1179 12.782 18.1082 12.4622C18.1025 12.273 18.1003 11.7662 17.9083 11.3007L14.2105 12.8258ZM15.0541 13.6796C14.8482 13.5837 14.7075 13.4726 14.633 13.408C14.5503 13.3363 14.4879 13.2683 14.4423 13.2127C14.3592 13.1115 14.2669 12.9728 14.1945 12.7857L17.9244 11.3408C17.8198 11.0707 17.6752 10.8468 17.5339 10.6746C17.4206 10.5366 17.1618 10.2487 16.7432 10.0537L15.0541 13.6796ZM14.5202 13.823C14.8877 13.823 15.1947 13.8273 15.4086 13.834C15.5181 13.8375 15.586 13.8411 15.6186 13.8435C15.6372 13.8448 15.6233 13.8443 15.5905 13.8399C15.5747 13.8378 15.533 13.8321 15.477 13.8205C15.4482 13.8146 15.4038 13.8047 15.3496 13.7894C15.3006 13.7756 15.2102 13.7482 15.1012 13.7008L16.6961 10.0325C16.4986 9.94668 16.3299 9.91225 16.2862 9.90323C16.215 9.88853 16.1544 9.8797 16.1161 9.87462C16.0382 9.8643 15.9648 9.8581 15.9107 9.85414C15.7979 9.84588 15.6673 9.8402 15.5348 9.83601C15.2644 9.82747 14.9123 9.823 14.5202 9.823V13.823ZM14.0613 13.6579C13.9455 13.7176 13.8465 13.7536 13.7834 13.7741C13.7175 13.7956 13.6633 13.8091 13.6276 13.8172C13.5588 13.8327 13.5116 13.8385 13.5025 13.8396C13.4846 13.8417 13.5053 13.8386 13.5933 13.8348C13.7634 13.8275 14.0513 13.823 14.5202 13.823V9.823C14.0447 9.823 13.6836 9.82724 13.4216 9.8385C13.2936 9.844 13.1525 9.85258 13.0174 9.86909C12.9751 9.87425 12.605 9.90872 12.2303 10.1016L14.0613 13.6579ZM14.806 12.8991C14.7338 13.0561 14.6528 13.1686 14.5863 13.2473C14.5486 13.2919 14.4976 13.347 14.4308 13.4064C14.3695 13.4608 14.2593 13.5509 14.1008 13.6371L12.1908 10.1225C11.8536 10.3058 11.635 10.5425 11.5304 10.6663C11.4077 10.8116 11.2765 11.0005 11.1721 11.2274L14.806 12.8991ZM14.8576 11.6471C14.9412 11.8971 14.9524 12.1032 14.9542 12.2006C14.9563 12.3131 14.9471 12.4026 14.9389 12.4607C14.9232 12.5726 14.8963 12.6741 14.8593 12.7718L11.1188 11.3547C11.0536 11.5267 11.0046 11.7134 10.9779 11.9039C10.9614 12.0212 10.9043 12.4383 11.0642 12.9162L14.8576 11.6471ZM14.8414 11.5525C14.8145 11.5129 14.789 11.4711 14.7742 11.4451C14.7663 11.4313 14.7695 11.4359 14.7796 11.4564C14.7845 11.4664 14.7974 11.493 14.8136 11.5316C14.8219 11.5514 14.8341 11.5815 14.8477 11.6195C14.8602 11.6545 14.8809 11.7159 14.9008 11.7949L11.021 12.7684C11.0818 13.0106 11.1814 13.2039 11.1911 13.2236C11.2269 13.2964 11.2645 13.3652 11.2974 13.4229C11.3639 13.54 11.4449 13.6707 11.5305 13.797L14.8414 11.5525ZM15.3538 12.5483C15.2351 12.1899 15.0016 11.7888 14.8414 11.5525L11.5305 13.797C11.5318 13.799 11.5347 13.8033 11.539 13.81C11.5432 13.8167 11.5481 13.8247 11.5536 13.8338C11.5648 13.8527 11.5759 13.8723 11.5853 13.8899C11.5899 13.8984 11.5934 13.9053 11.5959 13.9103C11.5985 13.9154 11.5992 13.9171 11.5984 13.9153C11.5978 13.914 11.5939 13.9056 11.5879 13.891C11.5848 13.8834 11.5805 13.8728 11.5755 13.8594C11.5706 13.8463 11.564 13.8282 11.5567 13.8059L15.3538 12.5483ZM15.5395 14.8838C15.5336 14.2467 15.5264 13.8156 15.5115 13.5183C15.4976 13.2427 15.4722 12.8974 15.3494 12.5351L11.5611 13.8192C11.4945 13.6229 11.5053 13.496 11.5165 13.7194C11.5267 13.9211 11.5336 14.2698 11.5397 14.9212L15.5395 14.8838ZM15.4483 17.0963C15.5135 16.843 15.5234 16.5836 15.526 16.5358C15.5325 16.4141 15.5364 16.2717 15.5389 16.1192C15.5438 15.8111 15.5436 15.3958 15.5396 14.8866L11.5397 14.9185C11.5437 15.4183 11.5435 15.7958 11.5394 16.0555C11.5373 16.187 11.5344 16.2722 11.5318 16.3209C11.5304 16.3458 11.5299 16.3461 11.5316 16.3301C11.5324 16.3217 11.5348 16.2998 11.5396 16.2688C11.5435 16.2427 11.5537 16.1799 11.5747 16.0984L15.4483 17.0963ZM13.8598 18.7214C14.1941 18.6349 14.6511 18.434 15.0161 17.9769C15.2978 17.6241 15.4017 17.2582 15.4294 17.1645L11.5936 16.0302C11.596 16.0222 11.6138 15.961 11.6505 15.8769C11.6884 15.7899 11.7615 15.6423 11.8903 15.481C12.0284 15.3081 12.2005 15.1567 12.3999 15.0395C12.5878 14.9291 12.7552 14.8755 12.8577 14.849L13.8598 18.7214ZM12.6334 18.7152C13.0623 18.8317 13.4799 18.8016 13.7581 18.7449L12.9594 14.8255C13.0841 14.8 13.183 14.795 13.2523 14.795C13.2921 14.795 13.3429 14.7967 13.4033 14.8028C13.4571 14.8083 13.557 14.8211 13.6822 14.8552L12.6334 18.7152ZM11.3243 17.8204C11.4361 17.942 11.5619 18.0676 11.6866 18.1782C11.7469 18.2316 11.8307 18.3027 11.9286 18.3735C11.9422 18.3833 12.2427 18.6176 12.6713 18.7251L13.6444 14.8453C13.7844 14.8804 13.8928 14.9241 13.9591 14.9536C14.0292 14.9847 14.0847 15.0145 14.1225 15.036C14.1959 15.0778 14.2479 15.1144 14.2717 15.1316C14.2989 15.1512 14.3174 15.1661 14.3258 15.1729C14.3349 15.1804 14.3396 15.1846 14.3397 15.1847C14.34 15.1849 14.3377 15.1829 14.3331 15.1786C14.3286 15.1743 14.3226 15.1686 14.3155 15.1615C14.3008 15.147 14.2844 15.13 14.268 15.1122L11.3243 17.8204ZM10.553 16.785C10.7486 17.1011 11.064 17.5375 11.3243 17.8204L14.268 15.1122C14.2701 15.1144 14.2567 15.0997 14.2275 15.0634C14.2004 15.0296 14.1678 14.9873 14.1324 14.9393C14.0585 14.8393 13.9934 14.7432 13.9542 14.6799L10.553 16.785ZM9.95675 15.7063C10.1176 16.0294 10.3736 16.4874 10.5403 16.7642L13.9669 14.7007C13.8443 14.497 13.6421 14.1338 13.5377 13.924L9.95675 15.7063ZM9.46428 14.6386C9.58964 14.9425 9.80563 15.412 9.96759 15.7278L13.5269 13.9025C13.4156 13.6855 13.2457 13.3162 13.1621 13.1135L9.46428 14.6386ZM9.02155 13.4606C9.15234 13.8381 9.3497 14.3502 9.45405 14.6133L13.1723 13.1387C13.0758 12.8952 12.9034 12.4463 12.8011 12.151L9.02155 13.4606ZM8.95057 13.1835C8.91315 13.1265 8.88764 13.0809 8.87605 13.0597C8.86269 13.0353 8.85333 13.0167 8.8486 13.0071C8.83946 12.9887 8.83588 12.9802 8.83902 12.9873C8.84494 13.0006 8.85853 13.0325 8.87977 13.0856C8.92131 13.1894 8.97495 13.331 9.02862 13.4807L12.794 12.131C12.7271 11.9443 12.6562 11.7562 12.5932 11.5989C12.5622 11.5215 12.5286 11.4401 12.4953 11.3651C12.4851 11.342 12.4077 11.1607 12.2934 10.9867L8.95057 13.1835ZM9.49346 13.6798C9.35455 13.6083 9.26765 13.5383 9.22402 13.5007C9.19569 13.4763 9.16074 13.444 9.12144 13.4019C9.08665 13.3647 9.02137 13.2912 8.95058 13.1835L12.2933 10.9867C12.1303 10.7386 11.9432 10.5636 11.834 10.4696C11.713 10.3654 11.5397 10.2343 11.3245 10.1235L9.49346 13.6798ZM9.35887 13.8273C9.55854 13.8263 9.70454 13.8261 9.8156 13.8272C9.93077 13.8284 9.98067 13.8308 9.99641 13.8319C10.0018 13.8322 9.98761 13.8314 9.96015 13.8277C9.93208 13.8238 9.88313 13.8159 9.82036 13.8002C9.75501 13.7839 9.68091 13.7607 9.60183 13.7282C9.52243 13.6956 9.45638 13.6612 9.40594 13.6319L11.412 10.1713C10.9776 9.91949 10.5684 9.86191 10.273 9.84144C10.0326 9.82478 9.71393 9.82535 9.33713 9.8274L9.35887 13.8273ZM9.11829 13.7056C9.03745 13.7386 8.96952 13.76 8.92568 13.7728C8.8795 13.7863 8.84039 13.7959 8.81206 13.8023C8.75691 13.8149 8.71278 13.8224 8.68834 13.8263C8.6395 13.8341 8.60341 13.8377 8.59255 13.8388C8.56764 13.8413 8.55733 13.8416 8.57272 13.8407C8.59872 13.8392 8.65103 13.837 8.73145 13.8348C8.88843 13.8305 9.10791 13.8274 9.348 13.8274V9.82737C9.0777 9.82737 8.82095 9.83082 8.62127 9.83632C8.52335 9.83902 8.42721 9.84253 8.34533 9.84719C8.30679 9.84938 8.25268 9.85286 8.19544 9.85857C8.16842 9.86127 8.11903 9.86656 8.05994 9.87596C8.0585 9.87619 7.84704 9.90429 7.60849 10.0015L9.11829 13.7056Z" fill="white" mask="url(#path-1-inside-1_301_157)"/>
</svg>
