<svg width="30" height="25" viewBox="0 0 30 25" fill="none" xmlns="http://www.w3.org/2000/svg">
<mask id="path-1-inside-1_222_1675" fill="white">
<path fill-rule="evenodd" clip-rule="evenodd" d="M0.300049 5.13222V21C0.300049 23.2091 2.09091 25 4.30005 25H25.6459C27.855 25 29.6459 23.2091 29.6459 21V5.42422L19.1916 15.7379C16.8327 18.0652 13.0337 18.0394 10.7065 15.6805L0.300049 5.13222ZM0.736348 2.7267C1.39848 1.4317 2.74573 0.545166 4.30005 0.545166H25.6459C27.2856 0.545166 28.6948 1.53177 29.3124 2.94373L28.1391 4.10121L17.787 14.3142C16.2144 15.8657 13.6818 15.8485 12.1303 14.2759L1.9173 3.92374L0.736348 2.7267Z"/>
</mask>
<path d="M0.300049 5.13222L1.7238 3.72761C1.15396 3.15 0.291611 2.97391 -0.459061 3.28188C-1.20973 3.58985 -1.69995 4.32083 -1.69995 5.13222H0.300049ZM29.6459 5.42422H31.6459C31.6459 4.61776 31.1615 3.89021 30.4175 3.57907C29.6734 3.26793 28.8153 3.43409 28.2412 4.00047L29.6459 5.42422ZM19.1916 15.7379L17.787 14.3142H17.787L19.1916 15.7379ZM10.7065 15.6805L12.1303 14.2759L10.7065 15.6805ZM0.736348 2.7267L-1.04439 1.81621C-1.43703 2.58416 -1.29314 3.51731 -0.687404 4.13131L0.736348 2.7267ZM29.3124 2.94373L30.717 4.36748C31.3066 3.78585 31.4767 2.90103 31.1448 2.14226L29.3124 2.94373ZM28.1391 4.10121L29.5437 5.52496L28.1391 4.10121ZM17.787 14.3142L16.3824 12.8904L17.787 14.3142ZM12.1303 14.2759L10.7065 15.6805L12.1303 14.2759ZM1.9173 3.92374L3.34105 2.51913V2.51913L1.9173 3.92374ZM2.30005 21V5.13222H-1.69995V21H2.30005ZM4.30005 23C3.19548 23 2.30005 22.1046 2.30005 21H-1.69995C-1.69995 24.3137 0.986335 27 4.30005 27V23ZM25.6459 23H4.30005V27H25.6459V23ZM27.6459 21C27.6459 22.1046 26.7504 23 25.6459 23V27C28.9596 27 31.6459 24.3137 31.6459 21H27.6459ZM27.6459 5.42422V21H31.6459V5.42422H27.6459ZM28.2412 4.00047L17.787 14.3142L20.5962 17.1617L31.0505 6.84798L28.2412 4.00047ZM17.787 14.3142C16.2144 15.8657 13.6818 15.8485 12.1303 14.2759L9.28276 17.0851C12.3857 20.2304 17.4509 20.2647 20.5962 17.1617L17.787 14.3142ZM12.1303 14.2759L1.7238 3.72761L-1.1237 6.53683L9.28276 17.0851L12.1303 14.2759ZM2.51708 3.63718C2.85068 2.98473 3.52576 2.54517 4.30005 2.54517V-1.45483C1.96571 -1.45483 -0.0537282 -0.121329 -1.04439 1.81621L2.51708 3.63718ZM4.30005 2.54517H25.6459V-1.45483H4.30005V2.54517ZM25.6459 2.54517C26.4626 2.54517 27.1694 3.03503 27.48 3.74519L31.1448 2.14226C30.2203 0.0285176 28.1085 -1.45483 25.6459 -1.45483V2.54517ZM29.5437 5.52496L30.717 4.36748L27.9078 1.51997L26.7345 2.67746L29.5437 5.52496ZM19.1916 15.7379L29.5437 5.52496L26.7345 2.67746L16.3824 12.8904L19.1916 15.7379ZM10.7065 15.6805C13.0337 18.0394 16.8326 18.0652 19.1916 15.7379L16.3824 12.8904C15.5961 13.6662 14.3298 13.6576 13.554 12.8713L10.7065 15.6805ZM0.493549 5.32835L10.7065 15.6805L13.554 12.8713L3.34105 2.51913L0.493549 5.32835ZM-0.687404 4.13131L0.493549 5.32835L3.34105 2.51913L2.1601 1.32209L-0.687404 4.13131Z" fill="white" fill-opacity="0.6" mask="url(#path-1-inside-1_222_1675)"/>
</svg>
