<svg width="29" height="28" viewBox="0 0 29 28" fill="none" xmlns="http://www.w3.org/2000/svg">
<path d="M7.10587 24.5913L7.68652 23.7771C7.40985 23.5798 7.05191 23.5365 6.73616 23.6621L7.10587 24.5913ZM2.68587 26.35L1.74958 25.9988C1.61058 26.3693 1.7032 26.787 1.98581 27.0641C2.26843 27.3411 2.68785 27.4255 3.05558 27.2791L2.68587 26.35ZM4.34385 21.93L5.28014 22.2812C5.40166 21.9572 5.34708 21.5935 5.13583 21.3195L4.34385 21.93ZM11.6787 8.01998V7.01998C11.6636 7.01998 11.6484 7.02032 11.6333 7.02101L11.6787 8.01998ZM12.0079 8.0712L11.733 9.0327L11.737 9.03382L12.0079 8.0712ZM11.0936 8.16267L10.7903 7.20978L10.7903 7.20978L11.0936 8.16267ZM10.4901 8.37121L10.1186 7.44279C10.1081 7.447 10.0976 7.45139 10.0873 7.45596L10.4901 8.37121ZM10.1061 8.58708L9.5691 7.74351L9.5691 7.74351L10.1061 8.58708ZM9.6563 8.94929L10.3532 9.66642C10.3567 9.66306 10.3601 9.65967 10.3635 9.65625L9.6563 8.94929ZM9.30155 9.33711L10.1132 9.92126L10.1132 9.92125L9.30155 9.33711ZM9.05286 9.75786L8.15831 9.31077L8.1538 9.32003L9.05286 9.75786ZM8.69445 10.9103L7.70536 10.7631C7.70454 10.7685 7.70378 10.774 7.70306 10.7795L8.69445 10.9103ZM8.67251 11.6421L7.67405 11.6975L7.67414 11.6991L8.67251 11.6421ZM8.78223 12.4104L7.81012 12.645C7.81217 12.6534 7.81432 12.6619 7.81659 12.6703L8.78223 12.4104ZM9.06383 13.2336L9.99589 12.8713C9.99385 12.8661 9.99177 12.8608 9.98964 12.8556L9.06383 13.2336ZM9.49904 14.2032L10.3935 13.7561L10.3935 13.7561L9.49904 14.2032ZM10.011 15.1361L10.8663 14.618L10.8663 14.618L10.011 15.1361ZM10.6474 16.0691L11.4452 15.4661L11.4449 15.4658L10.6474 16.0691ZM11.5324 17.0752L12.2439 16.3724L12.2355 16.3642L11.5324 17.0752ZM12.5382 17.9606L13.1418 17.1634L13.1414 17.1631L12.5382 17.9606ZM13.4708 18.5973L12.9523 19.4524L12.9523 19.4524L13.4708 18.5973ZM14.4033 19.1095L13.956 20.0038L13.956 20.0038L14.4033 19.1095ZM15.3725 19.5449L15.7508 18.6191L15.7395 18.6146L15.3725 19.5449ZM16.1954 19.8266L16.4492 18.8593L16.438 18.8565L16.1954 19.8266ZM16.9817 19.9363L17.0343 18.9377C17.0295 18.9375 17.0248 18.9373 17.0201 18.9371L16.9817 19.9363ZM17.7131 19.9144L17.8681 20.9023L17.8703 20.902L17.7131 19.9144ZM18.2983 19.7754L17.9949 18.8225L17.9949 18.8225L18.2983 19.7754ZM19.2674 19.307L18.683 18.4956C18.676 18.5007 18.669 18.5058 18.6622 18.511L19.2674 19.307ZM19.688 18.9156L18.9633 18.2265L18.9633 18.2265L19.688 18.9156ZM20.0976 18.3704L19.2254 17.8813L19.2254 17.8813L20.0976 18.3704ZM20.4012 17.6423L19.4523 17.3262L19.4484 17.3387L20.4012 17.6423ZM20.573 16.9838L19.5788 16.8763L19.578 16.8843L20.573 16.9838ZM20.5365 16.5996L21.488 16.2919L21.4852 16.2835L20.5365 16.5996ZM20.3207 16.2447L19.5842 16.9212L19.5878 16.925L20.3207 16.2447ZM18.8834 15.352L18.3915 16.2226L18.3942 16.2242L18.8834 15.352ZM17.4388 14.5764L17.1116 15.5213C17.119 15.5239 17.1265 15.5264 17.1339 15.5287L17.4388 14.5764ZM17.0914 14.5398L17.1627 15.5372C17.1732 15.5365 17.1838 15.5355 17.1943 15.5345L17.0914 14.5398ZM16.7257 14.6459L16.2783 13.7515L16.2783 13.7515L16.7257 14.6459ZM16.0125 15.3118L15.2776 14.6336L15.2763 14.635L16.0125 15.3118ZM15.0982 15.7142L15.5824 14.8393C15.5776 14.8366 15.5728 14.834 15.568 14.8314L15.0982 15.7142ZM14.4655 15.3337L13.8988 16.1576C13.9054 16.1621 13.9119 16.1665 13.9186 16.1709L14.4655 15.3337ZM13.8877 14.8727L13.1896 15.5889L13.1993 15.598L13.8877 14.8727ZM13.394 14.3129L12.5918 14.91L12.5918 14.91L13.394 14.3129ZM12.9405 13.5995L12.0608 14.0752L12.0608 14.0752L12.9405 13.5995ZM13.2952 12.5933L13.9722 13.3293L13.9739 13.3278L13.2952 12.5933ZM13.9608 11.8799L14.8601 12.3172C14.8628 12.3118 14.8654 12.3063 14.8679 12.3009L13.9608 11.8799ZM14.0669 11.5689L15.0547 11.7248C15.0573 11.7078 15.0596 11.6907 15.0614 11.6736L14.0669 11.5689ZM14.0596 11.2762L13.0668 11.3965C13.0684 11.4091 13.0701 11.4216 13.0721 11.4341L14.0596 11.2762ZM13.2842 9.77615L12.4123 10.2657L12.4135 10.268L13.2842 9.77615ZM12.3626 8.2834L11.6802 9.01432C11.6853 9.01911 11.6905 9.02384 11.6957 9.02851L12.3626 8.2834ZM14.6459 28C22.3779 28 28.6459 21.732 28.6459 14H26.6459C26.6459 20.6274 21.2733 26 14.6459 26V28ZM6.52523 25.4054C8.81561 27.0389 11.62 28 14.6459 28V26C12.0499 26 9.64912 25.1768 7.68652 23.7771L6.52523 25.4054ZM3.05558 27.2791L7.47558 25.5204L6.73616 23.6621L2.31616 25.4209L3.05558 27.2791ZM3.40755 21.5788L1.74958 25.9988L3.62217 26.7012L5.28014 22.2812L3.40755 21.5788ZM0.645874 14C0.645874 17.2138 1.72997 20.1772 3.55186 22.5405L5.13583 21.3195C3.57419 19.2937 2.64587 16.7567 2.64587 14H0.645874ZM14.6459 0C6.91389 0 0.645874 6.26801 0.645874 14H2.64587C2.64587 7.37258 8.01846 2 14.6459 2V0ZM28.6459 14C28.6459 6.26801 22.3779 0 14.6459 0V2C21.2733 2 26.6459 7.37258 26.6459 14H28.6459ZM11.6787 9.01998C11.6668 9.01998 11.6591 9.01959 11.6566 9.01946C11.6538 9.0193 11.6534 9.01922 11.6557 9.01943C11.6605 9.01989 11.6701 9.02099 11.683 9.02298C11.6957 9.02493 11.7081 9.02721 11.7189 9.02946C11.7302 9.03184 11.7348 9.03321 11.7331 9.03269L12.2827 7.10971C12.1093 7.06013 11.8694 7.01998 11.6787 7.01998V9.01998ZM11.3969 9.11556C11.4941 9.08463 11.5973 9.05621 11.6812 9.03594C11.7232 9.0258 11.7545 9.01913 11.7737 9.01549C11.7833 9.01367 11.7857 9.01341 11.7821 9.01391C11.782 9.01393 11.7595 9.01734 11.7242 9.01895L11.6333 7.02101C11.4822 7.02788 11.3051 7.06928 11.2118 7.09182C11.0836 7.12278 10.9345 7.16387 10.7903 7.20978L11.3969 9.11556ZM10.8617 9.29964C10.92 9.27631 11.164 9.18968 11.3969 9.11556L10.7903 7.20978C10.5404 7.28932 10.2432 7.39294 10.1186 7.44279L10.8617 9.29964ZM10.6432 9.43064C10.688 9.40212 10.7462 9.36709 10.8017 9.33569C10.8291 9.3202 10.8528 9.30725 10.8716 9.29745C10.8924 9.28657 10.8985 9.28403 10.893 9.28647L10.0873 7.45596C9.92438 7.52766 9.70089 7.65962 9.5691 7.74351L10.6432 9.43064ZM10.3635 9.65625C10.3904 9.62935 10.442 9.5834 10.5069 9.53152C10.5725 9.47908 10.6235 9.44317 10.6432 9.43064L9.5691 7.74351C9.38914 7.85808 9.12686 8.06444 8.94905 8.24232L10.3635 9.65625ZM10.1132 9.92125C10.1071 9.92973 10.11 9.92503 10.128 9.90385C10.144 9.88512 10.1653 9.86109 10.1911 9.83308C10.2431 9.77659 10.3025 9.71571 10.3532 9.66642L8.95937 8.23215C8.82643 8.36134 8.61079 8.58499 8.4899 8.75296L10.1132 9.92125ZM9.94736 10.2049C9.96857 10.1625 10.002 10.1017 10.0389 10.0394C10.0567 10.0094 10.0734 9.98214 10.0877 9.95974C10.0948 9.94863 10.1008 9.93955 10.1055 9.9325C10.1078 9.92903 10.1097 9.92631 10.1111 9.92432C10.1117 9.92333 10.1123 9.92258 10.1126 9.92205C10.1128 9.92179 10.113 9.92159 10.1131 9.92145C10.1132 9.92132 10.1132 9.92125 10.1132 9.92126L8.4899 8.75296C8.38639 8.89678 8.24626 9.13492 8.15836 9.31079L9.94736 10.2049ZM9.78639 10.6098C9.82267 10.4957 9.90329 10.2956 9.95192 10.1957L8.1538 9.32003C8.06346 9.50554 7.94659 9.79567 7.88047 10.0036L9.78639 10.6098ZM9.68355 11.0576C9.70164 10.9361 9.75208 10.7176 9.78639 10.6098L7.88047 10.0036C7.81237 10.2177 7.73847 10.5407 7.70536 10.7631L9.68355 11.0576ZM9.67097 11.5866C9.6594 11.3783 9.66929 11.1667 9.68585 11.0412L7.70306 10.7795C7.66842 11.0418 7.65636 11.379 7.67405 11.6975L9.67097 11.5866ZM9.75433 12.1759C9.71845 12.0271 9.68242 11.7869 9.67088 11.5851L7.67414 11.6991C7.69186 12.0094 7.7436 12.3693 7.81012 12.645L9.75433 12.1759ZM9.98964 12.8556C9.89835 12.632 9.78763 12.2983 9.74787 12.1505L7.81659 12.6703C7.87923 12.9031 8.0172 13.3157 8.13802 13.6116L9.98964 12.8556ZM10.3935 13.7561C10.2682 13.5054 10.0844 13.0989 9.99589 12.8713L8.13178 13.5959C8.2481 13.8952 8.45922 14.3595 8.60454 14.6502L10.3935 13.7561ZM10.8663 14.618C10.7357 14.4024 10.5183 14.0056 10.3935 13.7561L8.60454 14.6502C8.75045 14.9422 8.9938 15.3869 9.15576 15.6543L10.8663 14.618ZM11.4449 15.4658C11.2595 15.2207 10.9938 14.8283 10.8663 14.618L9.15576 15.6543C9.3209 15.9269 9.62566 16.376 9.84987 16.6724L11.4449 15.4658ZM12.2355 16.3642C11.9544 16.0861 11.6424 15.727 11.4452 15.4661L9.84962 16.6721C10.1059 17.0112 10.4815 17.4424 10.8293 17.7863L12.2355 16.3642ZM13.1414 17.1631C12.8807 16.9659 12.5217 16.6537 12.2438 16.3724L10.8211 17.7781C11.1649 18.1261 11.5959 18.5018 11.9349 18.7582L13.1414 17.1631ZM13.9892 17.7422C13.779 17.6147 13.3867 17.3488 13.1418 17.1634L11.9346 18.7579C12.2309 18.9822 12.6798 19.2871 12.9523 19.4524L13.9892 17.7422ZM14.8507 18.2151C14.6013 18.0904 14.2047 17.8728 13.9892 17.7422L12.9523 19.4524C13.2195 19.6144 13.6641 19.8578 13.956 20.0038L14.8507 18.2151ZM15.7395 18.6146C15.5104 18.5242 15.0984 18.339 14.8507 18.2151L13.956 20.0038C14.2496 20.1507 14.7153 20.3606 15.0055 20.4751L15.7395 18.6146ZM16.438 18.8565C16.31 18.8244 15.9848 18.7148 15.7508 18.6192L14.9942 20.4706C15.2795 20.5871 15.7004 20.7336 15.9527 20.7967L16.438 18.8565ZM17.0201 18.9371C16.7972 18.9285 16.5925 18.8969 16.4492 18.8593L15.9416 20.7938C16.2445 20.8733 16.5956 20.9222 16.9432 20.9356L17.0201 18.9371ZM17.5581 18.9265C17.4665 18.9408 17.2757 18.9504 17.0343 18.9377L16.9291 20.935C17.2435 20.9515 17.5867 20.9465 17.8681 20.9023L17.5581 18.9265ZM17.9949 18.8225C17.882 18.8584 17.6675 18.9091 17.5559 18.9268L17.8703 20.902C18.0805 20.8685 18.3927 20.7947 18.6016 20.7282L17.9949 18.8225ZM18.4087 18.6569C18.3089 18.7056 18.1089 18.7862 17.9949 18.8225L18.6016 20.7282C18.8094 20.6621 19.0995 20.5451 19.285 20.4548L18.4087 18.6569ZM18.6622 18.511C18.6658 18.5083 18.6591 18.5135 18.6386 18.5268C18.6198 18.539 18.5957 18.5539 18.5678 18.5704C18.5103 18.6043 18.4518 18.6359 18.4087 18.6569L19.285 20.4548C19.4624 20.3682 19.7113 20.2258 19.8727 20.1031L18.6622 18.511ZM18.9633 18.2265C18.9061 18.2867 18.8379 18.3542 18.7759 18.4121C18.7451 18.4408 18.7189 18.4643 18.6989 18.4817C18.6757 18.5016 18.6718 18.5037 18.683 18.4956L19.8519 20.1185C20.0239 19.9945 20.2642 19.7608 20.4127 19.6046L18.9633 18.2265ZM19.2254 17.8813C19.1868 17.9501 19.056 18.129 18.9633 18.2265L20.4127 19.6046C20.6053 19.4021 20.8402 19.0908 20.9698 18.8595L19.2254 17.8813ZM19.4484 17.3387C19.4194 17.4296 19.3758 17.5455 19.3288 17.6576C19.2793 17.7753 19.2404 17.8545 19.2254 17.8813L20.9698 18.8595C21.0945 18.6372 21.2582 18.2463 21.3539 17.946L19.4484 17.3387ZM19.578 16.8843C19.5808 16.856 19.5832 16.8523 19.5754 16.8889C19.5692 16.9179 19.5597 16.9582 19.5468 17.0075C19.521 17.1066 19.487 17.2224 19.4524 17.3262L21.3499 17.9585C21.435 17.703 21.545 17.3139 21.5681 17.0832L19.578 16.8843ZM19.585 16.9073C19.5841 16.9045 19.5829 16.9004 19.5819 16.8953C19.5808 16.8902 19.5801 16.8852 19.5797 16.8807C19.5788 16.871 19.5797 16.8684 19.5788 16.8763L21.5673 17.0912C21.5956 16.8289 21.5753 16.562 21.4879 16.2919L19.585 16.9073ZM19.5878 16.925C19.5854 16.9224 19.5842 16.921 19.5841 16.9208C19.5839 16.9207 19.5844 16.9213 19.5855 16.9228C19.5879 16.926 19.591 16.9306 19.5941 16.9356C19.5971 16.9407 19.5985 16.9436 19.5982 16.943C19.598 16.9425 19.5969 16.9403 19.5953 16.9363C19.5937 16.9323 19.591 16.9254 19.5877 16.9157L21.4852 16.2835C21.4003 16.0288 21.2387 15.7638 21.0536 15.5644L19.5878 16.925ZM18.3942 16.2242C18.907 16.5118 19.2167 16.6909 19.4106 16.8117C19.6202 16.9423 19.6214 16.9616 19.5842 16.9212L21.0572 15.5682C20.8957 15.3924 20.6902 15.2526 20.4683 15.1143C20.2306 14.9662 19.8839 14.7666 19.3726 14.4798L18.3942 16.2242ZM17.1339 15.5287C17.0751 15.5099 17.04 15.4913 17.0727 15.5067C17.0877 15.5137 17.1133 15.5263 17.1512 15.5455C17.2261 15.5835 17.3301 15.6382 17.4577 15.7066C17.7116 15.843 18.0435 16.026 18.3915 16.2226L19.3753 14.4814C19.0175 14.2792 18.6728 14.089 18.4038 13.9446C18.2698 13.8726 18.1507 13.81 18.0565 13.7621C18.002 13.7345 17.861 13.6615 17.7437 13.624L17.1339 15.5287ZM17.1943 15.5345C17.1765 15.5363 17.1667 15.5362 17.1657 15.5362C17.1639 15.5361 17.1644 15.5361 17.166 15.5363C17.1678 15.5364 17.1662 15.5364 17.1605 15.5352C17.156 15.5343 17.1387 15.5307 17.1116 15.5213L17.7661 13.6314C17.5182 13.5456 17.2234 13.5208 16.9884 13.5451L17.1943 15.5345ZM17.173 15.5402C17.167 15.5433 17.1635 15.5448 17.1629 15.545C17.1623 15.5453 17.1633 15.5448 17.1659 15.5439C17.1715 15.5417 17.1796 15.539 17.1886 15.5363C17.1929 15.5351 17.1966 15.5341 17.1995 15.5334C17.2025 15.5326 17.2039 15.5323 17.2037 15.5324C17.2036 15.5324 17.2006 15.533 17.1948 15.5339C17.1893 15.5347 17.1783 15.5361 17.1627 15.5372L17.0201 13.5423C16.7656 13.5605 16.4774 13.6519 16.2783 13.7515L17.173 15.5402ZM16.7475 15.9899C16.941 15.7801 17.0656 15.6528 17.1493 15.5748C17.2411 15.4894 17.237 15.5082 17.173 15.5402L16.2783 13.7515C16.0827 13.8494 15.9195 13.9871 15.7863 14.1112C15.6452 14.2426 15.479 14.4153 15.2776 14.6336L16.7475 15.9899ZM15.4456 16.8862C15.6549 16.8862 15.8084 16.8194 15.8492 16.8016C15.9114 16.7744 15.9582 16.7464 15.9825 16.7312C16.0323 16.7 16.0702 16.6704 16.0874 16.6567C16.1258 16.6261 16.1597 16.5953 16.1816 16.5751C16.2294 16.5309 16.2844 16.4765 16.3395 16.4206C16.4524 16.3061 16.597 16.1535 16.7487 15.9885L15.2763 14.635C15.1354 14.7883 15.0075 14.9229 14.9157 15.0161C14.8684 15.064 14.8379 15.0935 14.8231 15.1073C14.8136 15.116 14.822 15.1077 14.8412 15.0924C14.8488 15.0863 14.8787 15.0625 14.9223 15.0353C14.9435 15.022 14.9876 14.9955 15.0476 14.9692C15.0785 14.9557 15.1248 14.9373 15.1831 14.9214C15.2384 14.9063 15.3302 14.8862 15.4456 14.8862V16.8862ZM14.614 16.5892C14.7088 16.6416 14.8038 16.692 14.8834 16.7315C14.9217 16.7505 14.9666 16.7721 15.0107 16.7911C15.0314 16.8 15.0655 16.8143 15.1057 16.8281C15.1255 16.835 15.1588 16.8459 15.2002 16.8561C15.2281 16.863 15.3228 16.8862 15.4456 16.8862V14.8862C15.5133 14.8862 15.5673 14.8932 15.5991 14.8982C15.6332 14.9036 15.661 14.9098 15.6798 14.9145C15.7164 14.9235 15.7441 14.9327 15.7573 14.9372C15.7841 14.9465 15.8013 14.954 15.8019 14.9543C15.8056 14.9559 15.7972 14.9523 15.7729 14.9402C15.7272 14.9175 15.6595 14.8819 15.5824 14.8393L14.614 16.5892ZM13.9186 16.1709C14.1108 16.2965 14.42 16.4861 14.6285 16.597L15.568 14.8314C15.4326 14.7594 15.1786 14.6051 15.0125 14.4965L13.9186 16.1709ZM13.1993 15.598C13.3882 15.7773 13.6909 16.0146 13.8988 16.1576L15.0322 14.5098C14.8891 14.4113 14.6724 14.2388 14.5761 14.1474L13.1993 15.598ZM12.5918 14.91C12.7561 15.1308 13.0155 15.419 13.1897 15.5888L14.5857 14.1566C14.4746 14.0483 14.2878 13.839 14.1961 13.7158L12.5918 14.91ZM12.0608 14.0752C12.2045 14.3408 12.4352 14.6996 12.5918 14.91L14.1961 13.7158C14.0967 13.5823 13.9178 13.3046 13.8201 13.1238L12.0608 14.0752ZM11.721 13.1604C11.721 13.3067 11.7546 13.4196 11.7594 13.4369C11.7707 13.477 11.7823 13.5093 11.789 13.5272C11.8029 13.5643 11.8172 13.5968 11.8265 13.6174C11.8463 13.6614 11.8698 13.7093 11.892 13.7536C11.938 13.845 11.9979 13.9588 12.0608 14.0752L13.8201 13.1238C13.7623 13.017 13.7126 12.9222 13.679 12.8554C13.6615 12.8206 13.6527 12.802 13.6502 12.7964C13.6499 12.7958 13.6508 12.7976 13.6524 12.8015C13.6538 12.8049 13.6574 12.8135 13.662 12.8257C13.6658 12.8358 13.6752 12.8614 13.6849 12.8962C13.6899 12.9139 13.6975 12.9427 13.7042 12.979C13.7077 12.9976 13.7117 13.0216 13.7148 13.0499C13.718 13.0776 13.721 13.1154 13.721 13.1604H11.721ZM12.6182 11.8574C12.4532 12.0091 12.3007 12.1538 12.1863 12.2668C12.1304 12.3219 12.076 12.377 12.0318 12.4248C12.0116 12.4467 11.9808 12.4806 11.9502 12.519C11.9366 12.5362 11.907 12.574 11.8758 12.6239C11.8607 12.6482 11.8327 12.695 11.8055 12.7572C11.7877 12.798 11.721 12.9513 11.721 13.1604H13.721C13.721 13.2758 13.701 13.3676 13.6859 13.4228C13.6699 13.481 13.6516 13.5274 13.6381 13.5582C13.6119 13.6182 13.5854 13.6622 13.5721 13.6834C13.5449 13.727 13.5211 13.7569 13.5151 13.7645C13.4997 13.7838 13.4914 13.7921 13.5002 13.7827C13.5139 13.7678 13.5434 13.7374 13.5913 13.6901C13.6845 13.5981 13.819 13.4702 13.9722 13.3293L12.6182 11.8574ZM13.0615 11.4426C13.0947 11.3743 13.1179 11.3658 13.0344 11.4552C12.957 11.5381 12.8301 11.6615 12.6165 11.8589L13.9739 13.3278C14.1919 13.1264 14.3649 12.9608 14.496 12.8204C14.6209 12.6867 14.7611 12.5208 14.8601 12.3172L13.0615 11.4426ZM13.0791 11.413C13.0822 11.3935 13.0852 11.3801 13.0864 11.3745C13.0878 11.3684 13.0887 11.3654 13.0885 11.3662C13.088 11.368 13.0857 11.3759 13.0812 11.389C13.0769 11.4017 13.0717 11.4156 13.0664 11.4292C13.0609 11.443 13.0564 11.4531 13.0537 11.4589L14.8679 12.3009C14.9333 12.1599 15.023 11.9251 15.0547 11.7248L13.0791 11.413ZM13.0721 11.4341C13.071 11.4274 13.0706 11.4234 13.0705 11.4225C13.0704 11.4214 13.0705 11.422 13.0706 11.4244C13.071 11.4296 13.0714 11.4378 13.0716 11.448C13.0718 11.4582 13.0717 11.4669 13.0715 11.4728C13.0714 11.4755 13.0713 11.4766 13.0713 11.4759C13.0714 11.4754 13.0716 11.4714 13.0724 11.4643L15.0614 11.6736C15.0765 11.53 15.0775 11.3089 15.047 11.1183L13.0721 11.4341ZM12.4135 10.268C12.6913 10.7597 12.8734 11.0904 12.9866 11.3093C13.0437 11.4197 13.0758 11.4874 13.0922 11.5254C13.121 11.5922 13.0821 11.5229 13.0668 11.3965L15.0523 11.1559C15.0297 10.9691 14.9597 10.8052 14.9286 10.7331C14.8851 10.6324 14.8286 10.5171 14.7631 10.3906C14.6313 10.1358 14.4331 9.77679 14.1549 9.28435L12.4135 10.268ZM11.6957 9.02851C11.6457 8.98375 11.6607 8.97542 11.7992 9.20032C11.9249 9.40429 12.1108 9.72866 12.4123 10.2657L14.1562 9.28661C13.8579 8.7553 13.6525 8.3955 13.502 8.15128C13.3645 7.92799 13.2186 7.70746 13.0296 7.5383L11.6957 9.02851ZM11.737 9.03382C11.715 9.02762 11.6995 9.02139 11.6905 9.01738C11.6813 9.01329 11.6761 9.01026 11.6743 9.00921C11.6716 9.00761 11.6748 9.00933 11.6802 9.01432L13.0451 7.55249C12.847 7.36751 12.5829 7.19417 12.2787 7.10858L11.737 9.03382Z" fill="white" fill-opacity="0.6"/>
</svg>
