<svg width="169" height="64" viewBox="0 0 169 64" fill="none" xmlns="http://www.w3.org/2000/svg">
<path d="M0.619141 11.6932V7.69319L16.6191 0.647736V5.25001L5.6646 9.64774L5.81232 9.4091V9.97728L5.6646 9.73865L16.6191 14.1364V18.7386L0.619141 11.6932Z" fill="white" fill-opacity="0.6"/>
<path d="M22.4521 19C22.2255 19 22.0328 18.9207 21.8741 18.762C21.7155 18.6033 21.6361 18.3993 21.6361 18.15V2.17001C21.6361 1.92067 21.7155 1.71668 21.8741 1.55801C22.0328 1.39934 22.2255 1.32001 22.4521 1.32001H25.6141C25.8408 1.32001 26.0335 1.39934 26.1921 1.55801C26.3735 1.71668 26.4641 1.92067 26.4641 2.17001V3.32601C26.9175 2.69134 27.5408 2.14734 28.3341 1.69401C29.1501 1.24068 30.1135 1.00267 31.2241 0.980008C33.8535 0.934676 35.6555 1.93201 36.6301 3.97201C37.1515 3.08801 37.8995 2.37401 38.8741 1.83001C39.8715 1.26334 40.9595 0.980008 42.1381 0.980008C43.3168 0.980008 44.3821 1.25201 45.3341 1.79601C46.2861 2.31734 47.0341 3.13334 47.5781 4.24401C48.1448 5.33201 48.4281 6.73734 48.4281 8.46001V18.15C48.4281 18.3993 48.3488 18.6033 48.1901 18.762C48.0315 18.9207 47.8388 19 47.6121 19H44.2461C44.0195 19 43.8268 18.9207 43.6681 18.762C43.5095 18.6033 43.4301 18.3993 43.4301 18.15V8.73201C43.4301 7.80268 43.2941 7.07734 43.0221 6.55601C42.7501 6.01201 42.3875 5.62668 41.9341 5.40001C41.5035 5.17334 41.0161 5.06001 40.4721 5.06001C39.9961 5.06001 39.5315 5.17334 39.0781 5.40001C38.6475 5.62668 38.2848 6.01201 37.9901 6.55601C37.7181 7.07734 37.5821 7.80268 37.5821 8.73201V18.15C37.5821 18.3993 37.5028 18.6033 37.3441 18.762C37.1855 18.9207 36.9815 19 36.7321 19H33.4001C33.1508 19 32.9468 18.9207 32.7881 18.762C32.6295 18.6033 32.5501 18.3993 32.5501 18.15V8.73201C32.5501 7.80268 32.4141 7.07734 32.1421 6.55601C31.8701 6.01201 31.5075 5.62668 31.0541 5.40001C30.6235 5.17334 30.1475 5.06001 29.6261 5.06001C29.1501 5.06001 28.6855 5.18468 28.2321 5.43401C27.7788 5.66068 27.4048 6.03468 27.1101 6.55601C26.8381 7.07734 26.7021 7.79134 26.7021 8.69801V18.15C26.7021 18.3993 26.6228 18.6033 26.4641 18.762C26.3055 18.9207 26.1128 19 25.8861 19H22.4521Z" fill="white" fill-opacity="0.6"/>
<path d="M60.6403 19.34C58.7589 19.34 57.1836 19.034 55.9142 18.422C54.6449 17.7873 53.6702 16.892 52.9902 15.736C52.3329 14.58 51.9702 13.2313 51.9022 11.69C51.8796 11.2367 51.8683 10.7267 51.8683 10.16C51.8683 9.57068 51.8796 9.06068 51.9022 8.63001C51.9702 7.06601 52.3556 5.71734 53.0583 4.58401C53.7609 3.42801 54.7469 2.54401 56.0163 1.93201C57.2856 1.29734 58.8269 0.980008 60.6403 0.980008C62.4309 0.980008 63.9609 1.29734 65.2302 1.93201C66.4996 2.54401 67.4856 3.42801 68.1882 4.58401C68.8909 5.71734 69.2763 7.06601 69.3443 8.63001C69.3896 9.06068 69.4122 9.57068 69.4122 10.16C69.4122 10.7267 69.3896 11.2367 69.3443 11.69C69.2763 13.2313 68.9023 14.58 68.2223 15.736C67.5649 16.892 66.6016 17.7873 65.3323 18.422C64.0629 19.034 62.4989 19.34 60.6403 19.34ZM60.6403 15.6C61.7509 15.6 62.5896 15.26 63.1562 14.58C63.7229 13.8773 64.0289 12.8573 64.0742 11.52C64.0969 11.18 64.1082 10.7267 64.1082 10.16C64.1082 9.59334 64.0969 9.14001 64.0742 8.80001C64.0289 7.48534 63.7229 6.47668 63.1562 5.77401C62.5896 5.07134 61.7509 4.72001 60.6403 4.72001C59.5296 4.72001 58.6796 5.07134 58.0903 5.77401C57.5236 6.47668 57.2176 7.48534 57.1722 8.80001C57.1496 9.14001 57.1383 9.59334 57.1383 10.16C57.1383 10.7267 57.1496 11.18 57.1722 11.52C57.2176 12.8573 57.5236 13.8773 58.0903 14.58C58.6796 15.26 59.5296 15.6 60.6403 15.6Z" fill="white" fill-opacity="0.6"/>
<path d="M73.7842 19C73.5575 19 73.3648 18.9207 73.2062 18.762C73.0475 18.6033 72.9682 18.3993 72.9682 18.15V2.17001C72.9682 1.94334 73.0475 1.75068 73.2062 1.59201C73.3648 1.41068 73.5575 1.32001 73.7842 1.32001H77.1162C77.3428 1.32001 77.5355 1.41068 77.6942 1.59201C77.8755 1.75068 77.9662 1.94334 77.9662 2.17001V3.53001C78.5328 2.82734 79.2242 2.28334 80.0402 1.89801C80.8788 1.51268 81.8422 1.32001 82.9302 1.32001H84.3922C84.6188 1.32001 84.8115 1.39934 84.9702 1.55801C85.1288 1.71668 85.2082 1.92067 85.2082 2.17001V5.09401C85.2082 5.34334 85.1288 5.54734 84.9702 5.70601C84.8115 5.86468 84.6188 5.94401 84.3922 5.94401H81.4002C80.4028 5.94401 79.6208 6.22734 79.0542 6.79401C78.4875 7.33801 78.2042 8.12001 78.2042 9.14001V18.15C78.2042 18.3993 78.1248 18.6033 77.9662 18.762C77.8075 18.9207 77.6035 19 77.3542 19H73.7842Z" fill="white" fill-opacity="0.6"/>
<path d="M95.6363 19.34C93.755 19.34 92.1797 19.034 90.9103 18.422C89.641 17.7873 88.6663 16.892 87.9863 15.736C87.329 14.58 86.9663 13.2313 86.8983 11.69C86.8757 11.2367 86.8643 10.7267 86.8643 10.16C86.8643 9.57068 86.8757 9.06068 86.8983 8.63001C86.9663 7.06601 87.3517 5.71734 88.0543 4.58401C88.757 3.42801 89.743 2.54401 91.0123 1.93201C92.2817 1.29734 93.823 0.980008 95.6363 0.980008C97.427 0.980008 98.957 1.29734 100.226 1.93201C101.496 2.54401 102.482 3.42801 103.184 4.58401C103.887 5.71734 104.272 7.06601 104.34 8.63001C104.386 9.06068 104.408 9.57068 104.408 10.16C104.408 10.7267 104.386 11.2367 104.34 11.69C104.272 13.2313 103.898 14.58 103.218 15.736C102.561 16.892 101.598 17.7873 100.328 18.422C99.059 19.034 97.495 19.34 95.6363 19.34ZM95.6363 15.6C96.747 15.6 97.5857 15.26 98.1523 14.58C98.719 13.8773 99.025 12.8573 99.0703 11.52C99.093 11.18 99.1043 10.7267 99.1043 10.16C99.1043 9.59334 99.093 9.14001 99.0703 8.80001C99.025 7.48534 98.719 6.47668 98.1523 5.77401C97.5857 5.07134 96.747 4.72001 95.6363 4.72001C94.5257 4.72001 93.6757 5.07134 93.0863 5.77401C92.5197 6.47668 92.2137 7.48534 92.1683 8.80001C92.1457 9.14001 92.1343 9.59334 92.1343 10.16C92.1343 10.7267 92.1457 11.18 92.1683 11.52C92.2137 12.8573 92.5197 13.8773 93.0863 14.58C93.6757 15.26 94.5257 15.6 95.6363 15.6Z" fill="white" fill-opacity="0.6"/>
<path d="M107.798 19C107.572 19 107.379 18.9207 107.22 18.762C107.062 18.6033 106.982 18.3993 106.982 18.15V15.872C106.982 15.6453 107.028 15.4413 107.118 15.26C107.232 15.0787 107.356 14.9087 107.492 14.75L115.822 5.26401H108.104C107.855 5.26401 107.651 5.18468 107.492 5.02601C107.334 4.86734 107.254 4.67468 107.254 4.44801V2.17001C107.254 1.92067 107.334 1.71668 107.492 1.55801C107.651 1.39934 107.855 1.32001 108.104 1.32001H121.364C121.614 1.32001 121.818 1.39934 121.976 1.55801C122.135 1.71668 122.214 1.92067 122.214 2.17001V4.61801C122.214 4.82201 122.169 5.00334 122.078 5.16201C121.988 5.32068 121.874 5.47934 121.738 5.63801L113.578 15.056H122.078C122.305 15.056 122.498 15.1353 122.656 15.294C122.815 15.4527 122.894 15.6453 122.894 15.872V18.15C122.894 18.3993 122.815 18.6033 122.656 18.762C122.498 18.9207 122.305 19 122.078 19H107.798Z" fill="white" fill-opacity="0.6"/>
<path d="M134.119 19.34C132.237 19.34 130.662 19.034 129.393 18.422C128.123 17.7873 127.149 16.892 126.469 15.736C125.811 14.58 125.449 13.2313 125.381 11.69C125.358 11.2367 125.347 10.7267 125.347 10.16C125.347 9.57068 125.358 9.06068 125.381 8.63001C125.449 7.06601 125.834 5.71734 126.537 4.58401C127.239 3.42801 128.225 2.54401 129.495 1.93201C130.764 1.29734 132.305 0.980008 134.119 0.980008C135.909 0.980008 137.439 1.29734 138.709 1.93201C139.978 2.54401 140.964 3.42801 141.667 4.58401C142.369 5.71734 142.755 7.06601 142.823 8.63001C142.868 9.06068 142.891 9.57068 142.891 10.16C142.891 10.7267 142.868 11.2367 142.823 11.69C142.755 13.2313 142.381 14.58 141.701 15.736C141.043 16.892 140.08 17.7873 138.811 18.422C137.541 19.034 135.977 19.34 134.119 19.34ZM134.119 15.6C135.229 15.6 136.068 15.26 136.635 14.58C137.201 13.8773 137.507 12.8573 137.553 11.52C137.575 11.18 137.587 10.7267 137.587 10.16C137.587 9.59334 137.575 9.14001 137.553 8.80001C137.507 7.48534 137.201 6.47668 136.635 5.77401C136.068 5.07134 135.229 4.72001 134.119 4.72001C133.008 4.72001 132.158 5.07134 131.569 5.77401C131.002 6.47668 130.696 7.48534 130.651 8.80001C130.628 9.14001 130.617 9.59334 130.617 10.16C130.617 10.7267 130.628 11.18 130.651 11.52C130.696 12.8573 131.002 13.8773 131.569 14.58C132.158 15.26 133.008 15.6 134.119 15.6Z" fill="white" fill-opacity="0.6"/>
<path d="M152.039 19C151.699 19 151.438 18.9207 151.257 18.762C151.098 18.5807 150.962 18.3767 150.849 18.15L144.457 2.37401C144.411 2.28334 144.389 2.18134 144.389 2.06801C144.389 1.86401 144.457 1.69401 144.593 1.55801C144.751 1.39934 144.933 1.32001 145.137 1.32001H148.435C148.729 1.32001 148.945 1.39934 149.081 1.55801C149.239 1.71668 149.341 1.86401 149.387 2.00001L153.569 13.22L157.751 2.00001C157.819 1.86401 157.921 1.71668 158.057 1.55801C158.215 1.39934 158.431 1.32001 158.703 1.32001H162.001C162.205 1.32001 162.375 1.39934 162.511 1.55801C162.669 1.69401 162.749 1.86401 162.749 2.06801C162.749 2.18134 162.737 2.28334 162.715 2.37401L156.289 18.15C156.198 18.3767 156.062 18.5807 155.881 18.762C155.699 18.9207 155.439 19 155.099 19H152.039Z" fill="white" fill-opacity="0.6"/>
<path d="M49.1903 60C48.941 60 48.737 59.9207 48.5783 59.762C48.4197 59.6033 48.3403 59.3993 48.3403 59.15V55.342C48.3403 55.0927 48.4197 54.8887 48.5783 54.73C48.737 54.5713 48.941 54.492 49.1903 54.492H52.9983C53.2477 54.492 53.4517 54.5713 53.6103 54.73C53.769 54.8887 53.8483 55.0927 53.8483 55.342V59.15C53.8483 59.3993 53.769 59.6033 53.6103 59.762C53.4517 59.9207 53.2477 60 52.9983 60H49.1903Z" fill="white" fill-opacity="0.6"/>
<path d="M65.5956 60.34C63.9409 60.34 62.4789 60.034 61.2096 59.422C59.9629 58.81 58.9769 57.926 58.2516 56.77C57.5263 55.5913 57.1296 54.186 57.0616 52.554C57.0389 52.1913 57.0276 51.738 57.0276 51.194C57.0276 50.6273 57.0389 50.1627 57.0616 49.8C57.1296 48.1453 57.5149 46.74 58.2176 45.584C58.9429 44.4053 59.9403 43.51 61.2096 42.898C62.4789 42.286 63.9409 41.98 65.5956 41.98C67.1143 41.98 68.4063 42.1953 69.4716 42.626C70.5369 43.034 71.4096 43.5553 72.0896 44.19C72.7696 44.8247 73.2683 45.4933 73.5856 46.196C73.9256 46.876 74.1069 47.4767 74.1296 47.998C74.1523 48.2247 74.0729 48.4287 73.8916 48.61C73.7329 48.7687 73.5403 48.848 73.3136 48.848H69.6756C69.4489 48.848 69.2676 48.7913 69.1316 48.678C69.0183 48.542 68.9049 48.3607 68.7916 48.134C68.4743 47.3407 68.0663 46.774 67.5676 46.434C67.0689 46.094 66.4456 45.924 65.6976 45.924C64.6776 45.924 63.8729 46.2527 63.2836 46.91C62.6943 47.5673 62.3769 48.5873 62.3316 49.97C62.3089 50.854 62.3089 51.6587 62.3316 52.384C62.3996 53.7893 62.7169 54.8093 63.2836 55.444C63.8729 56.0787 64.6776 56.396 65.6976 56.396C66.4909 56.396 67.1256 56.226 67.6016 55.886C68.0776 55.546 68.4743 54.9793 68.7916 54.186C68.8823 53.9593 68.9956 53.7893 69.1316 53.676C69.2676 53.54 69.4489 53.472 69.6756 53.472H73.3136C73.5403 53.472 73.7329 53.5627 73.8916 53.744C74.0729 53.9027 74.1523 54.0953 74.1296 54.322C74.1069 54.7073 73.9936 55.1607 73.7896 55.682C73.6083 56.2033 73.3023 56.736 72.8716 57.28C72.4636 57.824 71.9309 58.334 71.2736 58.81C70.6163 59.2633 69.8116 59.6373 68.8596 59.932C67.9303 60.204 66.8423 60.34 65.5956 60.34Z" fill="white" fill-opacity="0.6"/>
<path d="M85.5563 60.34C83.6749 60.34 82.0996 60.034 80.8303 59.422C79.5609 58.7873 78.5863 57.892 77.9063 56.736C77.2489 55.58 76.8863 54.2313 76.8183 52.69C76.7956 52.2367 76.7843 51.7267 76.7843 51.16C76.7843 50.5707 76.7956 50.0607 76.8183 49.63C76.8863 48.066 77.2716 46.7173 77.9743 45.584C78.6769 44.428 79.6629 43.544 80.9323 42.932C82.2016 42.2973 83.7429 41.98 85.5563 41.98C87.3469 41.98 88.8769 42.2973 90.1463 42.932C91.4156 43.544 92.4016 44.428 93.1043 45.584C93.8069 46.7173 94.1923 48.066 94.2603 49.63C94.3056 50.0607 94.3283 50.5707 94.3283 51.16C94.3283 51.7267 94.3056 52.2367 94.2603 52.69C94.1923 54.2313 93.8183 55.58 93.1383 56.736C92.4809 57.892 91.5176 58.7873 90.2483 59.422C88.9789 60.034 87.4149 60.34 85.5563 60.34ZM85.5563 56.6C86.6669 56.6 87.5056 56.26 88.0723 55.58C88.6389 54.8773 88.9449 53.8573 88.9903 52.52C89.0129 52.18 89.0243 51.7267 89.0243 51.16C89.0243 50.5933 89.0129 50.14 88.9903 49.8C88.9449 48.4853 88.6389 47.4767 88.0723 46.774C87.5056 46.0713 86.6669 45.72 85.5563 45.72C84.4456 45.72 83.5956 46.0713 83.0063 46.774C82.4396 47.4767 82.1336 48.4853 82.0883 49.8C82.0656 50.14 82.0543 50.5933 82.0543 51.16C82.0543 51.7267 82.0656 52.18 82.0883 52.52C82.1336 53.8573 82.4396 54.8773 83.0063 55.58C83.5956 56.26 84.4456 56.6 85.5563 56.6Z" fill="white" fill-opacity="0.6"/>
<path d="M104.446 60.34C103.313 60.34 102.304 60.1587 101.42 59.796C100.536 59.4107 99.7882 58.8667 99.1762 58.164C98.5642 57.4387 98.0995 56.5887 97.7822 55.614C97.4649 54.6167 97.2722 53.5173 97.2042 52.316C97.1815 51.8853 97.1702 51.5 97.1702 51.16C97.1702 50.7973 97.1815 50.412 97.2042 50.004C97.2495 48.8253 97.4309 47.7487 97.7482 46.774C98.0882 45.7993 98.5529 44.9607 99.1422 44.258C99.7542 43.5327 100.502 42.9773 101.386 42.592C102.293 42.184 103.313 41.98 104.446 41.98C105.625 41.98 106.634 42.184 107.472 42.592C108.311 42.9773 109.002 43.4873 109.546 44.122V36.71C109.546 36.4607 109.626 36.2567 109.784 36.098C109.943 35.9393 110.147 35.86 110.396 35.86H113.898C114.125 35.86 114.318 35.9393 114.476 36.098C114.635 36.2567 114.714 36.4607 114.714 36.71V59.15C114.714 59.3993 114.635 59.6033 114.476 59.762C114.318 59.9207 114.125 60 113.898 60H110.634C110.408 60 110.215 59.9207 110.056 59.762C109.898 59.6033 109.818 59.3993 109.818 59.15V57.994C109.252 58.674 108.538 59.2407 107.676 59.694C106.815 60.1247 105.738 60.34 104.446 60.34ZM106.01 56.26C106.849 56.26 107.518 56.0673 108.016 55.682C108.538 55.2967 108.912 54.8093 109.138 54.22C109.388 53.6307 109.524 52.996 109.546 52.316C109.592 51.8853 109.614 51.4547 109.614 51.024C109.614 50.5933 109.592 50.174 109.546 49.766C109.524 49.1313 109.388 48.542 109.138 47.998C108.889 47.4313 108.504 46.9667 107.982 46.604C107.484 46.2413 106.826 46.06 106.01 46.06C105.149 46.06 104.469 46.2527 103.97 46.638C103.472 47.0007 103.109 47.488 102.882 48.1C102.678 48.712 102.554 49.3807 102.508 50.106C102.44 50.8087 102.44 51.5113 102.508 52.214C102.554 52.9393 102.678 53.608 102.882 54.22C103.109 54.832 103.472 55.3307 103.97 55.716C104.469 56.0787 105.149 56.26 106.01 56.26Z" fill="white" fill-opacity="0.6"/>
<path d="M126.923 60.34C124.316 60.34 122.242 59.6147 120.701 58.164C119.182 56.7133 118.377 54.6053 118.287 51.84C118.287 51.6587 118.287 51.4207 118.287 51.126C118.287 50.8087 118.287 50.5593 118.287 50.378C118.377 48.6327 118.774 47.1367 119.477 45.89C120.179 44.6207 121.165 43.6573 122.435 43C123.704 42.32 125.189 41.98 126.889 41.98C128.793 41.98 130.379 42.3767 131.649 43.17C132.941 43.9407 133.904 45.006 134.539 46.366C135.196 47.7033 135.525 49.2447 135.525 50.99V51.772C135.525 51.9987 135.434 52.1913 135.253 52.35C135.094 52.5087 134.901 52.588 134.675 52.588H123.557C123.557 52.6107 123.557 52.656 123.557 52.724C123.557 52.7693 123.557 52.8147 123.557 52.86C123.579 53.5853 123.715 54.254 123.965 54.866C124.237 55.4553 124.611 55.9313 125.087 56.294C125.585 56.6567 126.175 56.838 126.855 56.838C127.421 56.838 127.886 56.7587 128.249 56.6C128.611 56.4413 128.906 56.2487 129.133 56.022C129.382 55.7953 129.563 55.6027 129.677 55.444C129.881 55.2173 130.039 55.0813 130.153 55.036C130.289 54.968 130.493 54.934 130.765 54.934H134.301C134.527 54.934 134.709 55.002 134.845 55.138C135.003 55.2513 135.071 55.4213 135.049 55.648C135.026 56.0107 134.833 56.464 134.471 57.008C134.131 57.5293 133.621 58.0507 132.941 58.572C132.261 59.0707 131.411 59.49 130.391 59.83C129.393 60.17 128.237 60.34 126.923 60.34ZM123.557 49.494H130.221V49.426C130.221 48.61 130.085 47.9073 129.813 47.318C129.563 46.706 129.189 46.23 128.691 45.89C128.192 45.55 127.591 45.38 126.889 45.38C126.186 45.38 125.585 45.55 125.087 45.89C124.588 46.23 124.203 46.706 123.931 47.318C123.681 47.9073 123.557 48.61 123.557 49.426V49.494Z" fill="white" fill-opacity="0.6"/>
<path d="M148.849 35.6364L141.349 63.5H137.179L144.679 35.6364H148.849Z" fill="white" fill-opacity="0.6"/>
<path d="M168.125 52.6932L152.125 59.7386V55.1364L163.08 50.7386L162.932 50.9773V50.4091L163.08 50.6477L152.125 46.25V41.6477L168.125 48.6932V52.6932Z" fill="white" fill-opacity="0.6"/>
</svg>
