<svg width="174" height="19" viewBox="0 0 174 19" fill="none" xmlns="http://www.w3.org/2000/svg">
<path d="M0.517578 11.4332V8.93322L10.5176 4.52981V7.40623L3.67099 10.1548L3.76332 10.0057V10.3608L3.67099 10.2116L10.5176 12.9602V15.8366L0.517578 11.4332Z" fill="#474A4F"/>
<path d="M14.2045 16C14.0645 16 13.9455 15.951 13.8475 15.853C13.7495 15.755 13.7005 15.636 13.7005 15.496V5.58398C13.7005 5.44398 13.7495 5.32498 13.8475 5.22698C13.9455 5.12898 14.0645 5.07998 14.2045 5.07998H15.8425C15.9825 5.07998 16.1015 5.12898 16.1995 5.22698C16.2975 5.32498 16.3465 5.44398 16.3465 5.58398V6.29798C16.6405 5.90598 17.0325 5.57698 17.5225 5.31098C18.0265 5.03098 18.6215 4.88398 19.3075 4.86998C20.9035 4.84198 22.0165 5.46498 22.6465 6.73898C22.9685 6.17898 23.4305 5.73098 24.0325 5.39498C24.6485 5.04498 25.3275 4.86998 26.0695 4.86998C26.7975 4.86998 27.4555 5.03798 28.0435 5.37398C28.6455 5.70998 29.1145 6.22098 29.4505 6.90698C29.8005 7.57898 29.9755 8.43298 29.9755 9.46898V15.496C29.9755 15.636 29.9265 15.755 29.8285 15.853C29.7305 15.951 29.6115 16 29.4715 16H27.7495C27.6095 16 27.4905 15.951 27.3925 15.853C27.2945 15.755 27.2455 15.636 27.2455 15.496V9.63698C27.2455 9.00698 27.1545 8.50998 26.9725 8.14598C26.7905 7.76798 26.5455 7.50198 26.2375 7.34798C25.9295 7.19398 25.5865 7.11698 25.2085 7.11698C24.9005 7.11698 24.5925 7.19398 24.2845 7.34798C23.9765 7.50198 23.7245 7.76798 23.5285 8.14598C23.3325 8.50998 23.2345 9.00698 23.2345 9.63698V15.496C23.2345 15.636 23.1855 15.755 23.0875 15.853C22.9895 15.951 22.8705 16 22.7305 16H21.0085C20.8545 16 20.7285 15.951 20.6305 15.853C20.5465 15.755 20.5045 15.636 20.5045 15.496V9.63698C20.5045 9.00698 20.4065 8.50998 20.2105 8.14598C20.0145 7.76798 19.7625 7.50198 19.4545 7.34798C19.1465 7.19398 18.8175 7.11698 18.4675 7.11698C18.1455 7.11698 17.8305 7.20098 17.5225 7.36898C17.2145 7.52298 16.9625 7.78198 16.7665 8.14598C16.5705 8.50998 16.4725 9.00698 16.4725 9.63698V15.496C16.4725 15.636 16.4235 15.755 16.3255 15.853C16.2275 15.951 16.1085 16 15.9685 16H14.2045Z" fill="#474A4F"/>
<path d="M37.4797 16.21C36.3597 16.21 35.4147 16.014 34.6447 15.622C33.8887 15.23 33.3077 14.677 32.9017 13.963C32.5097 13.249 32.2857 12.416 32.2297 11.464C32.2157 11.212 32.2087 10.904 32.2087 10.54C32.2087 10.176 32.2157 9.86798 32.2297 9.61598C32.2857 8.64998 32.5167 7.81698 32.9227 7.11698C33.3427 6.40298 33.9307 5.84998 34.6867 5.45798C35.4567 5.06598 36.3877 4.86998 37.4797 4.86998C38.5717 4.86998 39.4957 5.06598 40.2517 5.45798C41.0217 5.84998 41.6097 6.40298 42.0157 7.11698C42.4357 7.81698 42.6737 8.64998 42.7297 9.61598C42.7437 9.86798 42.7507 10.176 42.7507 10.54C42.7507 10.904 42.7437 11.212 42.7297 11.464C42.6737 12.416 42.4427 13.249 42.0367 13.963C41.6447 14.677 41.0637 15.23 40.2937 15.622C39.5377 16.014 38.5997 16.21 37.4797 16.21ZM37.4797 14.131C38.2217 14.131 38.7957 13.9 39.2017 13.438C39.6077 12.962 39.8317 12.269 39.8737 11.359C39.8877 11.149 39.8947 10.876 39.8947 10.54C39.8947 10.204 39.8877 9.93098 39.8737 9.72098C39.8317 8.82498 39.6077 8.13898 39.2017 7.66298C38.7957 7.18698 38.2217 6.94898 37.4797 6.94898C36.7377 6.94898 36.1637 7.18698 35.7577 7.66298C35.3517 8.13898 35.1277 8.82498 35.0857 9.72098C35.0717 9.93098 35.0647 10.204 35.0647 10.54C35.0647 10.876 35.0717 11.149 35.0857 11.359C35.1277 12.269 35.3517 12.962 35.7577 13.438C36.1637 13.9 36.7377 14.131 37.4797 14.131Z" fill="#474A4F"/>
<path d="M45.5814 16C45.4414 16 45.3224 15.951 45.2244 15.853C45.1264 15.755 45.0774 15.636 45.0774 15.496V5.60498C45.0774 5.45098 45.1264 5.32498 45.2244 5.22698C45.3224 5.12898 45.4414 5.07998 45.5814 5.07998H47.2824C47.4224 5.07998 47.5414 5.12898 47.6394 5.22698C47.7514 5.32498 47.8074 5.45098 47.8074 5.60498V6.46598C48.1294 6.01798 48.5424 5.67498 49.0464 5.43698C49.5644 5.19898 50.1594 5.07998 50.8314 5.07998H51.6924C51.8464 5.07998 51.9654 5.12898 52.0494 5.22698C52.1474 5.32498 52.1964 5.44398 52.1964 5.58398V7.09598C52.1964 7.23598 52.1474 7.35498 52.0494 7.45298C51.9654 7.55098 51.8464 7.59998 51.6924 7.59998H50.0544C49.3824 7.59998 48.8574 7.78898 48.4794 8.16698C48.1154 8.54498 47.9334 9.06298 47.9334 9.72098V15.496C47.9334 15.636 47.8844 15.755 47.7864 15.853C47.6884 15.951 47.5624 16 47.4084 16H45.5814Z" fill="#474A4F"/>
<path d="M58.5207 16.21C57.4007 16.21 56.4557 16.014 55.6857 15.622C54.9297 15.23 54.3487 14.677 53.9427 13.963C53.5507 13.249 53.3267 12.416 53.2707 11.464C53.2567 11.212 53.2497 10.904 53.2497 10.54C53.2497 10.176 53.2567 9.86798 53.2707 9.61598C53.3267 8.64998 53.5577 7.81698 53.9637 7.11698C54.3837 6.40298 54.9717 5.84998 55.7277 5.45798C56.4977 5.06598 57.4287 4.86998 58.5207 4.86998C59.6127 4.86998 60.5367 5.06598 61.2927 5.45798C62.0627 5.84998 62.6507 6.40298 63.0567 7.11698C63.4767 7.81698 63.7147 8.64998 63.7707 9.61598C63.7847 9.86798 63.7917 10.176 63.7917 10.54C63.7917 10.904 63.7847 11.212 63.7707 11.464C63.7147 12.416 63.4837 13.249 63.0777 13.963C62.6857 14.677 62.1047 15.23 61.3347 15.622C60.5787 16.014 59.6407 16.21 58.5207 16.21ZM58.5207 14.131C59.2627 14.131 59.8367 13.9 60.2427 13.438C60.6487 12.962 60.8727 12.269 60.9147 11.359C60.9287 11.149 60.9357 10.876 60.9357 10.54C60.9357 10.204 60.9287 9.93098 60.9147 9.72098C60.8727 8.82498 60.6487 8.13898 60.2427 7.66298C59.8367 7.18698 59.2627 6.94898 58.5207 6.94898C57.7787 6.94898 57.2047 7.18698 56.7987 7.66298C56.3927 8.13898 56.1687 8.82498 56.1267 9.72098C56.1127 9.93098 56.1057 10.204 56.1057 10.54C56.1057 10.876 56.1127 11.149 56.1267 11.359C56.1687 12.269 56.3927 12.962 56.7987 13.438C57.2047 13.9 57.7787 14.131 58.5207 14.131Z" fill="#474A4F"/>
<path d="M65.9739 16C65.8199 16 65.6939 15.951 65.5959 15.853C65.5119 15.755 65.4699 15.636 65.4699 15.496V14.299C65.4699 14.173 65.4979 14.054 65.5539 13.942C65.6239 13.816 65.6939 13.711 65.7639 13.627L71.1399 7.26398H66.1419C66.0019 7.26398 65.8829 7.22198 65.7849 7.13798C65.6869 7.03998 65.6379 6.91398 65.6379 6.75998V5.58398C65.6379 5.44398 65.6869 5.32498 65.7849 5.22698C65.8829 5.12898 66.0019 5.07998 66.1419 5.07998H74.1009C74.2549 5.07998 74.3739 5.12898 74.4579 5.22698C74.5559 5.32498 74.6049 5.44398 74.6049 5.58398V6.86498C74.6049 6.99098 74.5769 7.10298 74.5209 7.20098C74.4649 7.29898 74.3949 7.40398 74.3109 7.51598L69.0609 13.816H74.5419C74.6819 13.816 74.8009 13.865 74.8989 13.963C74.9969 14.047 75.0459 14.166 75.0459 14.32V15.496C75.0459 15.636 74.9969 15.755 74.8989 15.853C74.8009 15.951 74.6819 16 74.5419 16H65.9739Z" fill="#474A4F"/>
<path d="M81.8791 16.21C80.7591 16.21 79.8141 16.014 79.0441 15.622C78.2881 15.23 77.7071 14.677 77.3011 13.963C76.9091 13.249 76.6851 12.416 76.6291 11.464C76.6151 11.212 76.6081 10.904 76.6081 10.54C76.6081 10.176 76.6151 9.86798 76.6291 9.61598C76.6851 8.64998 76.9161 7.81698 77.3221 7.11698C77.7421 6.40298 78.3301 5.84998 79.0861 5.45798C79.8561 5.06598 80.7871 4.86998 81.8791 4.86998C82.9711 4.86998 83.8951 5.06598 84.6511 5.45798C85.4211 5.84998 86.0091 6.40298 86.4151 7.11698C86.8351 7.81698 87.0731 8.64998 87.1291 9.61598C87.1431 9.86798 87.1501 10.176 87.1501 10.54C87.1501 10.904 87.1431 11.212 87.1291 11.464C87.0731 12.416 86.8421 13.249 86.4361 13.963C86.0441 14.677 85.4631 15.23 84.6931 15.622C83.9371 16.014 82.9991 16.21 81.8791 16.21ZM81.8791 14.131C82.6211 14.131 83.1951 13.9 83.6011 13.438C84.0071 12.962 84.2311 12.269 84.2731 11.359C84.2871 11.149 84.2941 10.876 84.2941 10.54C84.2941 10.204 84.2871 9.93098 84.2731 9.72098C84.2311 8.82498 84.0071 8.13898 83.6011 7.66298C83.1951 7.18698 82.6211 6.94898 81.8791 6.94898C81.1371 6.94898 80.5631 7.18698 80.1571 7.66298C79.7511 8.13898 79.5271 8.82498 79.4851 9.72098C79.4711 9.93098 79.4641 10.204 79.4641 10.54C79.4641 10.876 79.4711 11.149 79.4851 11.359C79.5271 12.269 79.7511 12.962 80.1571 13.438C80.5631 13.9 81.1371 14.131 81.8791 14.131Z" fill="#474A4F"/>
<path d="M92.9512 16C92.7272 16 92.5592 15.951 92.4472 15.853C92.3492 15.741 92.2652 15.615 92.1952 15.475L88.2682 5.73098C88.2402 5.66098 88.2262 5.59798 88.2262 5.54198C88.2262 5.41598 88.2682 5.31098 88.3522 5.22698C88.4502 5.12898 88.5622 5.07998 88.6882 5.07998H90.3892C90.5572 5.07998 90.6832 5.12898 90.7672 5.22698C90.8512 5.31098 90.9072 5.39498 90.9352 5.47898L93.7282 12.85L96.5212 5.47898C96.5492 5.39498 96.6052 5.31098 96.6892 5.22698C96.7732 5.12898 96.8992 5.07998 97.0672 5.07998H98.7892C98.9012 5.07998 98.9992 5.12898 99.0832 5.22698C99.1812 5.31098 99.2302 5.41598 99.2302 5.54198C99.2302 5.59798 99.2232 5.66098 99.2092 5.73098L95.2612 15.475C95.2052 15.615 95.1212 15.741 95.0092 15.853C94.8972 15.951 94.7292 16 94.5052 16H92.9512Z" fill="#474A4F"/>
<path d="M100.478 16C100.338 16 100.219 15.951 100.121 15.853C100.023 15.755 99.9739 15.636 99.9739 15.496V13.417C99.9739 13.263 100.023 13.137 100.121 13.039C100.219 12.941 100.338 12.892 100.478 12.892H102.578C102.718 12.892 102.837 12.941 102.935 13.039C103.033 13.137 103.082 13.263 103.082 13.417V15.496C103.082 15.636 103.033 15.755 102.935 15.853C102.837 15.951 102.718 16 102.578 16H100.478Z" fill="#474A4F"/>
<path d="M110.3 16.21C109.292 16.21 108.403 16.021 107.633 15.643C106.877 15.265 106.282 14.719 105.848 14.005C105.428 13.277 105.197 12.402 105.155 11.38C105.141 11.17 105.134 10.897 105.134 10.561C105.134 10.211 105.141 9.92398 105.155 9.69998C105.197 8.67798 105.428 7.80998 105.848 7.09598C106.282 6.36798 106.877 5.81498 107.633 5.43698C108.403 5.05898 109.292 4.86998 110.3 4.86998C111.196 4.86998 111.959 4.99598 112.589 5.24798C113.219 5.49998 113.737 5.81498 114.143 6.19298C114.549 6.57098 114.85 6.96998 115.046 7.38998C115.256 7.79598 115.368 8.16698 115.382 8.50298C115.396 8.65698 115.347 8.78298 115.235 8.88098C115.137 8.96498 115.018 9.00698 114.878 9.00698H113.03C112.89 9.00698 112.778 8.97198 112.694 8.90198C112.624 8.83198 112.554 8.72698 112.484 8.58698C112.274 8.02698 111.994 7.63498 111.644 7.41098C111.308 7.17298 110.874 7.05398 110.342 7.05398C109.642 7.05398 109.082 7.27798 108.662 7.72598C108.256 8.15998 108.039 8.85298 108.011 9.80498C107.983 10.337 107.983 10.827 108.011 11.275C108.039 12.241 108.256 12.941 108.662 13.375C109.082 13.809 109.642 14.026 110.342 14.026C110.888 14.026 111.329 13.914 111.665 13.69C112.001 13.452 112.274 13.053 112.484 12.493C112.554 12.353 112.624 12.248 112.694 12.178C112.778 12.108 112.89 12.073 113.03 12.073H114.878C115.018 12.073 115.137 12.122 115.235 12.22C115.347 12.304 115.396 12.423 115.382 12.577C115.368 12.829 115.298 13.116 115.172 13.438C115.06 13.746 114.871 14.068 114.605 14.404C114.353 14.726 114.031 15.027 113.639 15.307C113.247 15.573 112.771 15.79 112.211 15.958C111.665 16.126 111.028 16.21 110.3 16.21Z" fill="#474A4F"/>
<path d="M122.403 16.21C121.283 16.21 120.338 16.014 119.568 15.622C118.812 15.23 118.231 14.677 117.825 13.963C117.433 13.249 117.209 12.416 117.153 11.464C117.139 11.212 117.132 10.904 117.132 10.54C117.132 10.176 117.139 9.86798 117.153 9.61598C117.209 8.64998 117.44 7.81698 117.846 7.11698C118.266 6.40298 118.854 5.84998 119.61 5.45798C120.38 5.06598 121.311 4.86998 122.403 4.86998C123.495 4.86998 124.419 5.06598 125.175 5.45798C125.945 5.84998 126.533 6.40298 126.939 7.11698C127.359 7.81698 127.597 8.64998 127.653 9.61598C127.667 9.86798 127.674 10.176 127.674 10.54C127.674 10.904 127.667 11.212 127.653 11.464C127.597 12.416 127.366 13.249 126.96 13.963C126.568 14.677 125.987 15.23 125.217 15.622C124.461 16.014 123.523 16.21 122.403 16.21ZM122.403 14.131C123.145 14.131 123.719 13.9 124.125 13.438C124.531 12.962 124.755 12.269 124.797 11.359C124.811 11.149 124.818 10.876 124.818 10.54C124.818 10.204 124.811 9.93098 124.797 9.72098C124.755 8.82498 124.531 8.13898 124.125 7.66298C123.719 7.18698 123.145 6.94898 122.403 6.94898C121.661 6.94898 121.087 7.18698 120.681 7.66298C120.275 8.13898 120.051 8.82498 120.009 9.72098C119.995 9.93098 119.988 10.204 119.988 10.54C119.988 10.876 119.995 11.149 120.009 11.359C120.051 12.269 120.275 12.962 120.681 13.438C121.087 13.9 121.661 14.131 122.403 14.131Z" fill="#474A4F"/>
<path d="M134.053 16.21C133.325 16.21 132.681 16.091 132.121 15.853C131.575 15.601 131.12 15.251 130.756 14.803C130.392 14.355 130.112 13.83 129.916 13.228C129.72 12.612 129.608 11.94 129.58 11.212C129.566 10.96 129.559 10.736 129.559 10.54C129.559 10.33 129.566 10.099 129.58 9.84698C129.608 9.14698 129.713 8.49598 129.895 7.89398C130.091 7.29198 130.371 6.76698 130.735 6.31898C131.113 5.85698 131.575 5.49998 132.121 5.24798C132.681 4.99598 133.325 4.86998 134.053 4.86998C134.809 4.86998 135.446 5.00298 135.964 5.26898C136.496 5.52098 136.937 5.84998 137.287 6.25598V1.59398C137.287 1.45398 137.329 1.33498 137.413 1.23698C137.511 1.13898 137.637 1.08998 137.791 1.08998H139.576C139.716 1.08998 139.835 1.13898 139.933 1.23698C140.031 1.33498 140.08 1.45398 140.08 1.59398V15.496C140.08 15.636 140.031 15.755 139.933 15.853C139.835 15.951 139.716 16 139.576 16H137.917C137.763 16 137.637 15.951 137.539 15.853C137.455 15.755 137.413 15.636 137.413 15.496V14.719C137.063 15.153 136.615 15.51 136.069 15.79C135.537 16.07 134.865 16.21 134.053 16.21ZM134.83 13.963C135.418 13.963 135.887 13.83 136.237 13.564C136.587 13.298 136.846 12.962 137.014 12.556C137.182 12.136 137.273 11.709 137.287 11.275C137.301 11.023 137.308 10.757 137.308 10.477C137.308 10.183 137.301 9.90998 137.287 9.65798C137.273 9.23798 137.175 8.83898 136.993 8.46098C136.811 8.06898 136.545 7.74698 136.195 7.49498C135.845 7.24298 135.39 7.11698 134.83 7.11698C134.242 7.11698 133.773 7.24998 133.423 7.51598C133.087 7.76798 132.842 8.10398 132.688 8.52398C132.534 8.94398 132.443 9.40598 132.415 9.90998C132.401 10.33 132.401 10.75 132.415 11.17C132.443 11.674 132.534 12.136 132.688 12.556C132.842 12.976 133.087 13.319 133.423 13.585C133.773 13.837 134.242 13.963 134.83 13.963Z" fill="#474A4F"/>
<path d="M147.583 16.21C146.029 16.21 144.797 15.762 143.887 14.866C142.977 13.97 142.487 12.696 142.417 11.044C142.403 10.904 142.396 10.729 142.396 10.519C142.396 10.295 142.403 10.12 142.417 9.99398C142.473 8.94398 142.711 8.03398 143.131 7.26398C143.565 6.49398 144.16 5.90598 144.916 5.49998C145.672 5.07998 146.561 4.86998 147.583 4.86998C148.717 4.86998 149.669 5.10798 150.439 5.58398C151.209 6.04598 151.79 6.69698 152.182 7.53698C152.574 8.36298 152.77 9.32198 152.77 10.414V10.855C152.77 10.995 152.721 11.114 152.623 11.212C152.525 11.31 152.399 11.359 152.245 11.359H145.273C145.273 11.359 145.273 11.38 145.273 11.422C145.273 11.464 145.273 11.499 145.273 11.527C145.287 12.017 145.378 12.472 145.546 12.892C145.728 13.298 145.987 13.627 146.323 13.879C146.673 14.131 147.086 14.257 147.562 14.257C147.954 14.257 148.283 14.201 148.549 14.089C148.815 13.963 149.032 13.823 149.2 13.669C149.368 13.515 149.487 13.389 149.557 13.291C149.683 13.123 149.781 13.025 149.851 12.997C149.935 12.955 150.054 12.934 150.208 12.934H152.014C152.154 12.934 152.266 12.976 152.35 13.06C152.448 13.144 152.49 13.249 152.476 13.375C152.462 13.599 152.343 13.872 152.119 14.194C151.909 14.516 151.601 14.831 151.195 15.139C150.789 15.447 150.278 15.706 149.662 15.916C149.06 16.112 148.367 16.21 147.583 16.21ZM145.273 9.59498H149.914V9.53198C149.914 8.98598 149.823 8.50998 149.641 8.10398C149.459 7.69798 149.193 7.37598 148.843 7.13798C148.493 6.89998 148.073 6.78098 147.583 6.78098C147.093 6.78098 146.673 6.89998 146.323 7.13798C145.973 7.37598 145.707 7.69798 145.525 8.10398C145.357 8.50998 145.273 8.98598 145.273 9.53198V9.59498Z" fill="#474A4F"/>
<path d="M161.156 0.772705L156.468 18.1875H153.862L158.549 0.772705H161.156Z" fill="#474A4F"/>
<path d="M173.203 11.4332L163.203 15.8366V12.9602L170.05 10.2116L169.957 10.3608V10.0057L170.05 10.1548L163.203 7.40623V4.52981L173.203 8.93322V11.4332Z" fill="#474A4F"/>
</svg>
